G75*
%MOIN*%
%OFA0B0*%
%FSLAX25Y25*%
%IPPOS*%
%LPD*%
%AMOC8*
5,1,8,0,0,1.08239X$1,22.5*
%
%ADD10C,0.05200*%
%ADD11C,0.17000*%
%ADD12C,0.07400*%
%ADD13C,0.06000*%
%ADD14C,0.06400*%
%ADD15C,0.08000*%
%ADD16C,0.06500*%
%ADD17C,0.06600*%
%ADD18C,0.07000*%
%ADD19C,0.02500*%
%ADD20C,0.04000*%
D10*
X0123791Y0129150D02*
X0123791Y0134350D01*
X0133791Y0134350D02*
X0133791Y0129150D01*
X0143791Y0129150D02*
X0143791Y0134350D01*
X0153791Y0134350D02*
X0153791Y0129150D01*
X0163791Y0129150D02*
X0163791Y0134350D01*
X0173791Y0134350D02*
X0173791Y0129150D01*
X0183791Y0129150D02*
X0183791Y0134350D01*
X0193791Y0134350D02*
X0193791Y0129150D01*
X0208791Y0129150D02*
X0208791Y0134350D01*
X0218791Y0134350D02*
X0218791Y0129150D01*
X0228791Y0129150D02*
X0228791Y0134350D01*
X0238791Y0134350D02*
X0238791Y0129150D01*
X0248791Y0129150D02*
X0248791Y0134350D01*
X0268791Y0134350D02*
X0268791Y0129150D01*
X0278791Y0129150D02*
X0278791Y0134350D01*
X0288791Y0134350D02*
X0288791Y0129150D01*
X0298791Y0129150D02*
X0298791Y0134350D01*
X0308791Y0134350D02*
X0308791Y0129150D01*
X0328791Y0129150D02*
X0328791Y0134350D01*
X0338791Y0134350D02*
X0338791Y0129150D01*
X0348791Y0129150D02*
X0348791Y0134350D01*
X0358791Y0134350D02*
X0358791Y0129150D01*
X0368791Y0129150D02*
X0368791Y0134350D01*
X0368791Y0189150D02*
X0368791Y0194350D01*
X0358791Y0194350D02*
X0358791Y0189150D01*
X0348791Y0189150D02*
X0348791Y0194350D01*
X0338791Y0194350D02*
X0338791Y0189150D01*
X0328791Y0189150D02*
X0328791Y0194350D01*
X0308791Y0194350D02*
X0308791Y0189150D01*
X0298791Y0189150D02*
X0298791Y0194350D01*
X0288791Y0194350D02*
X0288791Y0189150D01*
X0278791Y0189150D02*
X0278791Y0194350D01*
X0268791Y0194350D02*
X0268791Y0189150D01*
X0248791Y0189150D02*
X0248791Y0194350D01*
X0238791Y0194350D02*
X0238791Y0189150D01*
X0228791Y0189150D02*
X0228791Y0194350D01*
X0218791Y0194350D02*
X0218791Y0189150D01*
X0208791Y0189150D02*
X0208791Y0194350D01*
X0193791Y0164350D02*
X0193791Y0159150D01*
X0183791Y0159150D02*
X0183791Y0164350D01*
X0173791Y0164350D02*
X0173791Y0159150D01*
X0163791Y0159150D02*
X0163791Y0164350D01*
X0153791Y0164350D02*
X0153791Y0159150D01*
X0143791Y0159150D02*
X0143791Y0164350D01*
X0133791Y0164350D02*
X0133791Y0159150D01*
X0123791Y0159150D02*
X0123791Y0164350D01*
X0333791Y0214150D02*
X0333791Y0219350D01*
X0343791Y0219350D02*
X0343791Y0214150D01*
X0353791Y0214150D02*
X0353791Y0219350D01*
X0363791Y0219350D02*
X0363791Y0214150D01*
X0373791Y0214150D02*
X0373791Y0219350D01*
X0393791Y0219350D02*
X0393791Y0214150D01*
X0403791Y0214150D02*
X0403791Y0219350D01*
X0413791Y0219350D02*
X0413791Y0214150D01*
X0423791Y0214150D02*
X0423791Y0219350D01*
X0433791Y0219350D02*
X0433791Y0214150D01*
X0476191Y0211750D02*
X0481391Y0211750D01*
X0481391Y0221750D02*
X0476191Y0221750D01*
X0476191Y0231750D02*
X0481391Y0231750D01*
X0481391Y0241750D02*
X0476191Y0241750D01*
X0476191Y0251750D02*
X0481391Y0251750D01*
X0506191Y0251750D02*
X0511391Y0251750D01*
X0511391Y0241750D02*
X0506191Y0241750D01*
X0506191Y0231750D02*
X0511391Y0231750D01*
X0511391Y0221750D02*
X0506191Y0221750D01*
X0506191Y0211750D02*
X0511391Y0211750D01*
X0511391Y0201750D02*
X0506191Y0201750D01*
X0506191Y0191750D02*
X0511391Y0191750D01*
X0511391Y0181750D02*
X0506191Y0181750D01*
X0481391Y0181750D02*
X0476191Y0181750D01*
X0476191Y0191750D02*
X0481391Y0191750D01*
X0481391Y0201750D02*
X0476191Y0201750D01*
X0433791Y0274150D02*
X0433791Y0279350D01*
X0423791Y0279350D02*
X0423791Y0274150D01*
X0413791Y0274150D02*
X0413791Y0279350D01*
X0403791Y0279350D02*
X0403791Y0274150D01*
X0393791Y0274150D02*
X0393791Y0279350D01*
X0373791Y0279350D02*
X0373791Y0274150D01*
X0363791Y0274150D02*
X0363791Y0279350D01*
X0353791Y0279350D02*
X0353791Y0274150D01*
X0343791Y0274150D02*
X0343791Y0279350D01*
X0333791Y0279350D02*
X0333791Y0274150D01*
D11*
X0062728Y0211750D03*
X0039106Y0211750D03*
X0050917Y0193246D03*
D12*
X0048791Y0246750D03*
X0018791Y0246750D03*
X0228791Y0114250D03*
X0223791Y0106750D03*
X0233791Y0106750D03*
X0244145Y0084427D03*
X0244145Y0074427D03*
X0263830Y0082616D03*
X0303201Y0084427D03*
X0303201Y0074427D03*
X0322886Y0082616D03*
X0343791Y0106750D03*
X0353791Y0106750D03*
X0348791Y0114250D03*
X0362256Y0084427D03*
X0362256Y0074427D03*
X0381941Y0082616D03*
X0421311Y0084427D03*
X0421311Y0074427D03*
X0440996Y0082616D03*
X0480366Y0084427D03*
X0480366Y0074427D03*
X0500051Y0082616D03*
X0500051Y0052616D03*
X0440996Y0052616D03*
X0381941Y0052616D03*
X0322886Y0052616D03*
X0263830Y0052616D03*
X0200838Y0052616D03*
X0181153Y0074427D03*
X0181153Y0084427D03*
X0200838Y0082616D03*
X0141783Y0082616D03*
X0126035Y0084427D03*
X0126035Y0074427D03*
X0141783Y0052616D03*
X0086665Y0052616D03*
X0070917Y0074427D03*
X0086665Y0082616D03*
X0070917Y0084427D03*
X0283791Y0106750D03*
X0293791Y0106750D03*
X0288791Y0114250D03*
X0408791Y0181750D03*
X0418791Y0181750D03*
X0413791Y0189250D03*
X0308791Y0266750D03*
X0303791Y0274250D03*
X0298791Y0266750D03*
D13*
X0098791Y0119750D02*
X0098791Y0113750D01*
X0088791Y0113750D02*
X0088791Y0119750D01*
X0078791Y0119750D02*
X0078791Y0113750D01*
D14*
X0133791Y0246750D03*
X0143791Y0246750D03*
X0153791Y0246750D03*
X0163791Y0246750D03*
X0173791Y0246750D03*
X0183791Y0246750D03*
X0193791Y0246750D03*
X0203791Y0246750D03*
X0213791Y0246750D03*
X0223791Y0246750D03*
X0233791Y0246750D03*
X0243791Y0246750D03*
X0253791Y0246750D03*
X0263791Y0246750D03*
X0263791Y0276750D03*
X0253791Y0276750D03*
X0243791Y0276750D03*
X0233791Y0276750D03*
X0223791Y0276750D03*
X0213791Y0276750D03*
X0203791Y0276750D03*
X0193791Y0276750D03*
X0183791Y0276750D03*
X0173791Y0276750D03*
X0163791Y0276750D03*
X0153791Y0276750D03*
X0143791Y0276750D03*
X0133791Y0276750D03*
X0088791Y0271750D03*
X0078791Y0271750D03*
X0068791Y0271750D03*
X0068791Y0261750D03*
X0078791Y0261750D03*
X0088791Y0261750D03*
X0408791Y0161750D03*
X0418791Y0161750D03*
X0428791Y0161750D03*
X0438791Y0161750D03*
X0448791Y0161750D03*
X0458791Y0161750D03*
X0468791Y0161750D03*
X0478791Y0161750D03*
X0478791Y0131750D03*
X0468791Y0131750D03*
X0458791Y0131750D03*
X0448791Y0131750D03*
X0438791Y0131750D03*
X0428791Y0131750D03*
X0418791Y0131750D03*
X0408791Y0131750D03*
D15*
X0034291Y0156750D03*
X0023291Y0156750D03*
X0023291Y0176750D03*
X0034291Y0176750D03*
D16*
X0158791Y0226750D03*
X0168791Y0226750D03*
X0198791Y0226750D03*
X0218791Y0226750D03*
X0253791Y0226750D03*
X0263791Y0226750D03*
D17*
X0070484Y0019191D03*
X0070484Y0029191D03*
X0070484Y0039191D03*
X0124421Y0039191D03*
X0124421Y0029191D03*
X0124421Y0019191D03*
X0182295Y0019191D03*
X0182295Y0029191D03*
X0182295Y0039191D03*
X0244106Y0039191D03*
X0244106Y0029191D03*
X0244106Y0019191D03*
X0304854Y0019191D03*
X0304854Y0029191D03*
X0304854Y0039191D03*
X0361665Y0039191D03*
X0361665Y0029191D03*
X0361665Y0019191D03*
X0422413Y0019191D03*
X0422413Y0029191D03*
X0422413Y0039191D03*
X0479224Y0039191D03*
X0479224Y0029191D03*
X0479224Y0019191D03*
X0043791Y0126750D03*
X0033791Y0126750D03*
X0023791Y0126750D03*
D18*
X0110996Y0211750D03*
X0136586Y0211750D03*
D19*
X0136370Y0211809D01*
X0126035Y0211809D01*
X0108811Y0194585D01*
X0106842Y0189663D02*
X0111271Y0189663D01*
X0128496Y0206888D01*
X0111271Y0211809D02*
X0110996Y0211750D01*
X0110287Y0210825D01*
X0100445Y0200982D01*
X0059598Y0200982D01*
X0052216Y0193600D01*
X0050917Y0193246D01*
X0050740Y0193108D01*
X0034500Y0176868D01*
X0034291Y0176750D01*
X0023181Y0170470D02*
X0020720Y0170470D01*
X0016783Y0174407D01*
X0016783Y0200982D01*
X0043358Y0200982D01*
X0053693Y0211317D01*
X0062551Y0211317D01*
X0062728Y0211750D01*
X0033515Y0225589D02*
X0014323Y0225589D01*
X0011862Y0223128D01*
X0011862Y0132577D01*
X0028102Y0132577D01*
X0033515Y0127163D01*
X0033791Y0126750D01*
X0043791Y0126750D02*
X0043850Y0126671D01*
X0098476Y0126671D01*
X0098476Y0116829D01*
X0098791Y0116750D01*
X0103889Y0124211D02*
X0176232Y0124211D01*
X0183614Y0131593D01*
X0183791Y0131750D01*
X0173791Y0131750D02*
X0173771Y0132085D01*
X0159992Y0145864D01*
X0095031Y0145864D01*
X0124559Y0140943D02*
X0048279Y0140943D01*
X0058122Y0150785D02*
X0138830Y0150785D01*
X0138830Y0166041D01*
X0142275Y0169486D01*
X0165897Y0169486D01*
X0166882Y0170470D01*
X0165405Y0176376D02*
X0233811Y0176376D01*
X0234795Y0176868D01*
X0291389Y0176868D01*
X0293850Y0179329D01*
X0286468Y0184250D02*
X0331252Y0184250D01*
X0338634Y0191632D01*
X0338791Y0191750D01*
X0328791Y0191750D02*
X0328791Y0192124D01*
X0324854Y0196061D01*
X0314027Y0196061D01*
X0311075Y0199014D01*
X0263338Y0199014D01*
X0262600Y0198276D01*
X0268752Y0192124D01*
X0268791Y0191750D01*
X0271212Y0184250D02*
X0278102Y0191140D01*
X0278791Y0191750D01*
X0279086Y0191632D01*
X0286468Y0184250D01*
X0271212Y0184250D02*
X0226429Y0184250D01*
X0219047Y0191632D01*
X0218791Y0191750D01*
X0216094Y0199014D02*
X0209697Y0192616D01*
X0208791Y0191750D01*
X0208712Y0191632D01*
X0172787Y0191632D01*
X0169342Y0188187D01*
X0175248Y0186711D02*
X0175740Y0186219D01*
X0195917Y0186219D01*
X0190996Y0181297D02*
X0143260Y0181297D01*
X0124067Y0162104D01*
X0123791Y0161750D01*
X0103889Y0164565D02*
X0123575Y0184250D01*
X0106842Y0189663D02*
X0103889Y0186711D01*
X0067964Y0195077D02*
X0053201Y0180313D01*
X0023181Y0170470D02*
X0023181Y0157183D01*
X0023291Y0156750D01*
X0053201Y0121750D02*
X0086173Y0088778D01*
X0089126Y0088778D01*
X0119145Y0058758D01*
X0321409Y0058758D01*
X0381941Y0119289D01*
X0363732Y0108463D02*
X0323870Y0068600D01*
X0186567Y0068600D01*
X0181153Y0074014D01*
X0181153Y0074427D01*
X0182630Y0082872D02*
X0200838Y0082872D01*
X0200838Y0082616D01*
X0214126Y0074506D02*
X0244145Y0074506D01*
X0244145Y0074427D01*
X0245622Y0082872D02*
X0263830Y0082872D01*
X0263830Y0082616D01*
X0271212Y0094191D02*
X0275149Y0098128D01*
X0276134Y0098620D01*
X0279086Y0095667D01*
X0306645Y0095667D01*
X0293791Y0106750D02*
X0293358Y0106494D01*
X0288191Y0101327D01*
X0288929Y0100589D01*
X0347492Y0100589D01*
X0353397Y0106494D01*
X0353791Y0106750D01*
X0348791Y0114250D02*
X0348476Y0114368D01*
X0317964Y0114368D01*
X0322886Y0119289D02*
X0293850Y0119289D01*
X0288929Y0114368D01*
X0288791Y0114250D01*
X0278102Y0104033D02*
X0281547Y0100589D01*
X0287452Y0100589D01*
X0288191Y0101327D01*
X0278102Y0104033D02*
X0236271Y0104033D01*
X0233811Y0106494D01*
X0233791Y0106750D01*
X0228791Y0114250D02*
X0228889Y0114368D01*
X0254480Y0114368D01*
X0259401Y0119289D01*
X0278791Y0131750D02*
X0278594Y0132085D01*
X0271951Y0138728D01*
X0272689Y0139467D01*
X0331252Y0139467D01*
X0338634Y0132085D01*
X0338791Y0131750D01*
X0327807Y0144388D02*
X0223968Y0144388D01*
X0224952Y0139467D02*
X0225691Y0138728D01*
X0219047Y0132085D01*
X0218791Y0131750D01*
X0225691Y0138728D02*
X0226429Y0139467D01*
X0271212Y0139467D01*
X0271951Y0138728D01*
X0287452Y0149309D02*
X0233811Y0149309D01*
X0176232Y0149309D01*
X0202807Y0142911D02*
X0206252Y0139467D01*
X0224952Y0139467D01*
X0241685Y0154230D02*
X0259401Y0171947D01*
X0249559Y0154230D02*
X0284992Y0154230D01*
X0296311Y0165549D01*
X0292374Y0154230D02*
X0287452Y0149309D01*
X0292374Y0154230D02*
X0312551Y0154230D01*
X0312551Y0178344D01*
X0313043Y0179329D01*
X0356350Y0179329D01*
X0368653Y0191632D01*
X0368791Y0191750D01*
X0374067Y0188679D02*
X0374067Y0199506D01*
X0328791Y0199506D01*
X0327315Y0200982D01*
X0316488Y0200982D01*
X0311075Y0206396D01*
X0278594Y0206396D01*
X0262600Y0198276D02*
X0261862Y0199014D01*
X0216094Y0199014D01*
X0213634Y0206396D02*
X0175248Y0206396D01*
X0170327Y0201474D01*
X0166389Y0211317D02*
X0322393Y0211317D01*
X0327807Y0205904D01*
X0331744Y0209348D02*
X0324854Y0216238D01*
X0296311Y0216238D01*
X0290897Y0226573D02*
X0264815Y0226573D01*
X0263791Y0226750D01*
X0263338Y0226573D01*
X0257925Y0221159D01*
X0166882Y0221159D01*
X0161960Y0226081D01*
X0158791Y0226750D01*
X0157531Y0226573D01*
X0126035Y0226573D01*
X0111271Y0211809D01*
X0112748Y0232478D02*
X0159500Y0232478D01*
X0173771Y0246750D01*
X0173791Y0246750D01*
X0171803Y0237400D02*
X0161468Y0227065D01*
X0159008Y0227065D01*
X0158791Y0226750D01*
X0168791Y0226750D02*
X0168850Y0227065D01*
X0198378Y0227065D01*
X0198791Y0226750D01*
X0194441Y0237400D02*
X0171803Y0237400D01*
X0181153Y0232478D02*
X0239224Y0232478D01*
X0253496Y0246750D01*
X0253791Y0246750D01*
X0263791Y0246750D02*
X0263830Y0246750D01*
X0279086Y0231494D01*
X0288437Y0231494D01*
X0290897Y0226573D02*
X0299756Y0235431D01*
X0306153Y0252163D02*
X0319441Y0238876D01*
X0383417Y0238876D01*
X0373575Y0229033D02*
X0411960Y0229033D01*
X0423771Y0217222D01*
X0423791Y0216750D01*
X0433614Y0226573D01*
X0473476Y0226573D01*
X0478397Y0231494D01*
X0478791Y0231750D01*
X0491193Y0224112D02*
X0491193Y0191632D01*
X0488240Y0191632D01*
X0483319Y0186711D01*
X0436075Y0186711D01*
X0421311Y0171947D01*
X0413929Y0167026D02*
X0463634Y0167026D01*
X0468555Y0162104D01*
X0468791Y0161750D01*
X0453299Y0156199D02*
X0484303Y0156199D01*
X0484303Y0167518D01*
X0508417Y0191632D01*
X0508791Y0191750D01*
X0508417Y0201474D02*
X0508791Y0201750D01*
X0508417Y0201474D02*
X0488732Y0181789D01*
X0478889Y0181789D01*
X0478791Y0181750D01*
X0478791Y0191750D02*
X0478397Y0192124D01*
X0474460Y0196061D01*
X0394244Y0196061D01*
X0389815Y0191140D02*
X0376527Y0204427D01*
X0366685Y0204427D01*
X0351429Y0209348D02*
X0396212Y0209348D01*
X0396951Y0210087D01*
X0397689Y0209348D01*
X0446409Y0209348D01*
X0458712Y0221652D01*
X0478889Y0201967D02*
X0486271Y0209348D01*
X0486271Y0269388D01*
X0388338Y0269388D01*
X0387600Y0270126D01*
X0386862Y0269388D01*
X0341094Y0269388D01*
X0334204Y0276278D01*
X0333791Y0276750D01*
X0319933Y0266435D02*
X0304185Y0282183D01*
X0229382Y0282183D01*
X0228643Y0281445D01*
X0227905Y0282183D01*
X0099460Y0282183D01*
X0089126Y0271848D01*
X0088791Y0271750D01*
X0068791Y0271750D02*
X0068456Y0271356D01*
X0057138Y0260037D01*
X0032531Y0260037D01*
X0019244Y0246750D01*
X0018791Y0246750D01*
X0015799Y0235431D02*
X0035484Y0255116D01*
X0089618Y0255116D01*
X0105858Y0271356D01*
X0127019Y0271356D01*
X0133909Y0276278D02*
X0133791Y0276750D01*
X0133909Y0276278D02*
X0138830Y0271356D01*
X0294834Y0271356D01*
X0297295Y0273817D01*
X0303693Y0273817D01*
X0303791Y0274250D01*
X0298791Y0266750D02*
X0299264Y0266435D01*
X0311075Y0254624D01*
X0412945Y0254624D01*
X0412945Y0249703D02*
X0336665Y0249703D01*
X0343555Y0233955D02*
X0415897Y0233955D01*
X0418850Y0231002D01*
X0421311Y0238876D02*
X0409008Y0238876D01*
X0418850Y0243797D02*
X0412945Y0249703D01*
X0418850Y0259545D02*
X0380956Y0259545D01*
X0380464Y0260037D01*
X0385386Y0264467D02*
X0428693Y0264467D01*
X0436075Y0253640D02*
X0421311Y0238876D01*
X0436075Y0253640D02*
X0476921Y0253640D01*
X0478397Y0252163D01*
X0478791Y0251750D01*
X0491193Y0224112D02*
X0508417Y0241337D01*
X0508791Y0241750D01*
X0508791Y0231750D02*
X0508909Y0231494D01*
X0516291Y0224112D01*
X0516291Y0126179D01*
X0442964Y0126179D01*
X0438791Y0131750D02*
X0438535Y0131593D01*
X0431153Y0124211D01*
X0183614Y0124211D01*
X0178693Y0119289D01*
X0108811Y0119289D01*
X0124559Y0140943D02*
X0133417Y0132085D01*
X0133791Y0131750D01*
X0144736Y0152754D02*
X0146212Y0154230D01*
X0241685Y0154230D01*
X0313043Y0149309D02*
X0341094Y0149309D01*
X0358319Y0132085D01*
X0358791Y0131750D01*
X0363732Y0139467D02*
X0403102Y0139467D01*
X0409008Y0132085D02*
X0413929Y0137006D01*
X0489224Y0137006D01*
X0489224Y0162104D01*
X0508417Y0181297D01*
X0508791Y0181750D01*
X0478791Y0201750D02*
X0478889Y0201967D01*
X0413929Y0167026D02*
X0409008Y0162104D01*
X0408791Y0161750D01*
X0405809Y0156937D02*
X0393260Y0144388D01*
X0405809Y0156937D02*
X0406547Y0156199D01*
X0423279Y0156199D01*
X0428693Y0161612D01*
X0428791Y0161750D01*
X0438791Y0161750D02*
X0439027Y0161612D01*
X0458712Y0141927D01*
X0466586Y0141927D01*
X0409008Y0132085D02*
X0408791Y0131750D01*
X0405809Y0156937D02*
X0374067Y0188679D01*
X0389815Y0191140D02*
X0399165Y0191140D01*
X0408515Y0181789D01*
X0408791Y0181750D01*
X0396951Y0210087D02*
X0403594Y0216730D01*
X0403791Y0216750D01*
X0393791Y0216750D02*
X0393752Y0217222D01*
X0386862Y0224112D01*
X0341094Y0224112D01*
X0334204Y0217222D01*
X0333791Y0216750D01*
X0331744Y0209348D02*
X0341094Y0209348D01*
X0342571Y0207872D01*
X0351429Y0209348D02*
X0344047Y0216730D01*
X0343791Y0216750D01*
X0306153Y0252163D02*
X0239224Y0252163D01*
X0233811Y0246750D01*
X0233791Y0246750D01*
X0257925Y0260530D02*
X0182138Y0260530D01*
X0180661Y0266435D02*
X0175740Y0261514D01*
X0133417Y0261514D01*
X0123575Y0251671D01*
X0133791Y0246750D02*
X0112748Y0246750D01*
X0084697Y0250195D02*
X0064027Y0250195D01*
X0050740Y0245274D02*
X0049264Y0246750D01*
X0048791Y0246750D01*
X0050740Y0245274D02*
X0078791Y0245274D01*
X0117177Y0266435D02*
X0153594Y0266435D01*
X0180661Y0266435D02*
X0183614Y0266435D01*
X0195425Y0255608D02*
X0203299Y0247734D01*
X0203791Y0246750D01*
X0194441Y0237400D01*
X0218791Y0226750D02*
X0219047Y0227065D01*
X0253496Y0227065D01*
X0253791Y0226750D01*
X0233811Y0216238D02*
X0153594Y0216238D01*
X0148181Y0221652D01*
X0149165Y0196553D02*
X0190996Y0196553D01*
X0195917Y0201474D01*
X0257925Y0260530D02*
X0260386Y0258069D01*
X0233791Y0276750D02*
X0233319Y0276770D01*
X0228643Y0281445D01*
X0387600Y0270126D02*
X0393752Y0276278D01*
X0393791Y0276750D01*
X0333712Y0169486D02*
X0363732Y0139467D01*
X0398181Y0090254D02*
X0354382Y0046455D01*
X0006449Y0046455D01*
X0006449Y0228049D01*
X0013830Y0235431D01*
X0015799Y0235431D01*
X0071901Y0113384D02*
X0121606Y0063679D01*
X0292866Y0063679D01*
X0263830Y0052852D02*
X0322886Y0052852D01*
X0322886Y0052616D01*
X0305661Y0039565D02*
X0304854Y0039191D01*
X0304677Y0039565D01*
X0244145Y0039565D01*
X0244106Y0039191D01*
X0243161Y0039565D01*
X0183122Y0039565D01*
X0182295Y0039191D01*
X0182138Y0039565D01*
X0125543Y0039565D01*
X0124421Y0039191D01*
X0124067Y0039565D01*
X0070917Y0039565D01*
X0070484Y0039191D01*
X0072393Y0082872D02*
X0086665Y0082872D01*
X0086665Y0082616D01*
X0072393Y0082872D02*
X0070917Y0084348D01*
X0070917Y0084427D01*
X0126035Y0084348D02*
X0126035Y0084427D01*
X0126035Y0084348D02*
X0127512Y0082872D01*
X0141783Y0082872D01*
X0141783Y0082616D01*
X0181153Y0084348D02*
X0182630Y0082872D01*
X0181153Y0084348D02*
X0181153Y0084427D01*
X0214126Y0074506D02*
X0214126Y0115352D01*
X0227905Y0094191D02*
X0271212Y0094191D01*
X0245622Y0082872D02*
X0244145Y0084348D01*
X0244145Y0084427D01*
X0263830Y0052852D02*
X0263830Y0052616D01*
X0305661Y0039565D02*
X0361271Y0039565D01*
X0361665Y0039191D01*
X0362748Y0039565D01*
X0421311Y0039565D01*
X0422413Y0039191D01*
X0422787Y0039565D01*
X0478889Y0039565D01*
X0479224Y0039191D01*
X0479224Y0029191D02*
X0478889Y0028738D01*
X0448870Y0028738D01*
X0433614Y0013482D01*
X0302708Y0013482D01*
X0297787Y0018404D01*
X0304677Y0082872D02*
X0322886Y0082872D01*
X0322886Y0082616D01*
X0304677Y0082872D02*
X0303201Y0084348D01*
X0303201Y0084427D01*
X0362256Y0084348D02*
X0362256Y0084427D01*
X0362256Y0084348D02*
X0363732Y0082872D01*
X0381941Y0082872D01*
X0381941Y0082616D01*
X0421311Y0084348D02*
X0422787Y0082872D01*
X0440996Y0082872D01*
X0440996Y0082616D01*
X0421311Y0084348D02*
X0421311Y0084427D01*
X0480366Y0084348D02*
X0480366Y0084427D01*
X0480366Y0084348D02*
X0481842Y0082872D01*
X0500051Y0082872D01*
X0500051Y0082616D01*
D20*
X0442964Y0126179D03*
X0466586Y0141927D03*
X0453299Y0156199D03*
X0421311Y0171947D03*
X0394244Y0196061D03*
X0366685Y0204427D03*
X0342571Y0207872D03*
X0327807Y0205904D03*
X0296311Y0216238D03*
X0278594Y0206396D03*
X0288437Y0231494D03*
X0299756Y0235431D03*
X0336665Y0249703D03*
X0319933Y0266435D03*
X0343555Y0233955D03*
X0373575Y0229033D03*
X0383417Y0238876D03*
X0409008Y0238876D03*
X0418850Y0243797D03*
X0412945Y0254624D03*
X0418850Y0259545D03*
X0428693Y0264467D03*
X0385386Y0264467D03*
X0380464Y0260037D03*
X0418850Y0231002D03*
X0458712Y0221652D03*
X0333712Y0169486D03*
X0313043Y0179329D03*
X0293850Y0179329D03*
X0296311Y0165549D03*
X0313043Y0149309D03*
X0327807Y0144388D03*
X0322886Y0119289D03*
X0317964Y0114368D03*
X0306645Y0095667D03*
X0276134Y0098620D03*
X0259401Y0119289D03*
X0223968Y0144388D03*
X0233811Y0149309D03*
X0249559Y0154230D03*
X0259401Y0171947D03*
X0233811Y0176376D03*
X0195917Y0186219D03*
X0190996Y0181297D03*
X0175248Y0186711D03*
X0169342Y0188187D03*
X0165405Y0176376D03*
X0166882Y0170470D03*
X0144736Y0152754D03*
X0176232Y0149309D03*
X0202807Y0142911D03*
X0214126Y0115352D03*
X0227905Y0094191D03*
X0292866Y0063679D03*
X0297787Y0018404D03*
X0398181Y0090254D03*
X0363732Y0108463D03*
X0381941Y0119289D03*
X0403102Y0139467D03*
X0393260Y0144388D03*
X0233811Y0216238D03*
X0213634Y0206396D03*
X0195917Y0201474D03*
X0170327Y0201474D03*
X0166389Y0211317D03*
X0148181Y0221652D03*
X0128496Y0206888D03*
X0149165Y0196553D03*
X0123575Y0184250D03*
X0108811Y0194585D03*
X0103889Y0186711D03*
X0067964Y0195077D03*
X0053201Y0180313D03*
X0103889Y0164565D03*
X0095031Y0145864D03*
X0058122Y0150785D03*
X0048279Y0140943D03*
X0053201Y0121750D03*
X0071901Y0113384D03*
X0103889Y0124211D03*
X0108811Y0119289D03*
X0033515Y0225589D03*
X0064027Y0250195D03*
X0078791Y0245274D03*
X0084697Y0250195D03*
X0112748Y0246750D03*
X0123575Y0251671D03*
X0117177Y0266435D03*
X0127019Y0271356D03*
X0153594Y0266435D03*
X0182138Y0260530D03*
X0183614Y0266435D03*
X0195425Y0255608D03*
X0181153Y0232478D03*
X0112748Y0232478D03*
X0260386Y0258069D03*
M02*
