G75*
%MOIN*%
%OFA0B0*%
%FSLAX25Y25*%
%IPPOS*%
%LPD*%
%AMOC8*
5,1,8,0,0,1.08239X$1,22.5*
%
%ADD10C,0.00004*%
%ADD11C,0.05200*%
%ADD12C,0.17000*%
%ADD13C,0.07400*%
%ADD14C,0.06000*%
%ADD15C,0.00000*%
%ADD16C,0.06400*%
%ADD17C,0.08000*%
%ADD18C,0.06500*%
%ADD19C,0.06600*%
%ADD20C,0.07000*%
%ADD21C,0.02500*%
%ADD22C,0.04000*%
D10*
X0020687Y0001002D02*
X0502141Y0001002D01*
X0502617Y0001008D01*
X0503092Y0001025D01*
X0503567Y0001054D01*
X0504041Y0001094D01*
X0504514Y0001146D01*
X0504985Y0001209D01*
X0505455Y0001283D01*
X0505923Y0001369D01*
X0506389Y0001466D01*
X0506852Y0001574D01*
X0507312Y0001693D01*
X0507770Y0001824D01*
X0508224Y0001965D01*
X0508675Y0002118D01*
X0509121Y0002281D01*
X0509564Y0002455D01*
X0510002Y0002640D01*
X0510436Y0002835D01*
X0510865Y0003041D01*
X0511289Y0003257D01*
X0511708Y0003483D01*
X0512121Y0003719D01*
X0512528Y0003965D01*
X0512929Y0004221D01*
X0513323Y0004487D01*
X0513712Y0004762D01*
X0514093Y0005046D01*
X0514467Y0005339D01*
X0514835Y0005641D01*
X0515195Y0005953D01*
X0515547Y0006272D01*
X0515891Y0006600D01*
X0516228Y0006937D01*
X0516556Y0007281D01*
X0516875Y0007633D01*
X0517187Y0007993D01*
X0517489Y0008361D01*
X0517782Y0008735D01*
X0518066Y0009116D01*
X0518341Y0009505D01*
X0518607Y0009899D01*
X0518863Y0010300D01*
X0519109Y0010707D01*
X0519345Y0011120D01*
X0519571Y0011539D01*
X0519787Y0011963D01*
X0519993Y0012392D01*
X0520188Y0012826D01*
X0520373Y0013264D01*
X0520547Y0013707D01*
X0520710Y0014153D01*
X0520863Y0014604D01*
X0521004Y0015058D01*
X0521135Y0015516D01*
X0521254Y0015976D01*
X0521362Y0016439D01*
X0521459Y0016905D01*
X0521545Y0017373D01*
X0521619Y0017843D01*
X0521682Y0018314D01*
X0521734Y0018787D01*
X0521774Y0019261D01*
X0521803Y0019736D01*
X0521820Y0020211D01*
X0521826Y0020687D01*
X0521826Y0267774D01*
X0521820Y0268250D01*
X0521803Y0268725D01*
X0521774Y0269200D01*
X0521734Y0269674D01*
X0521682Y0270147D01*
X0521619Y0270618D01*
X0521545Y0271088D01*
X0521459Y0271556D01*
X0521362Y0272022D01*
X0521254Y0272485D01*
X0521135Y0272945D01*
X0521004Y0273403D01*
X0520863Y0273857D01*
X0520710Y0274308D01*
X0520547Y0274754D01*
X0520373Y0275197D01*
X0520188Y0275635D01*
X0519993Y0276069D01*
X0519787Y0276498D01*
X0519571Y0276922D01*
X0519345Y0277341D01*
X0519109Y0277754D01*
X0518863Y0278161D01*
X0518607Y0278562D01*
X0518341Y0278956D01*
X0518066Y0279345D01*
X0517782Y0279726D01*
X0517489Y0280100D01*
X0517187Y0280468D01*
X0516875Y0280828D01*
X0516556Y0281180D01*
X0516228Y0281524D01*
X0515891Y0281861D01*
X0515547Y0282189D01*
X0515195Y0282508D01*
X0514835Y0282820D01*
X0514467Y0283122D01*
X0514093Y0283415D01*
X0513712Y0283699D01*
X0513323Y0283974D01*
X0512929Y0284240D01*
X0512528Y0284496D01*
X0512121Y0284742D01*
X0511708Y0284978D01*
X0511289Y0285204D01*
X0510865Y0285420D01*
X0510436Y0285626D01*
X0510002Y0285821D01*
X0509564Y0286006D01*
X0509121Y0286180D01*
X0508675Y0286343D01*
X0508224Y0286496D01*
X0507770Y0286637D01*
X0507312Y0286768D01*
X0506852Y0286887D01*
X0506389Y0286995D01*
X0505923Y0287092D01*
X0505455Y0287178D01*
X0504985Y0287252D01*
X0504514Y0287315D01*
X0504041Y0287367D01*
X0503567Y0287407D01*
X0503092Y0287436D01*
X0502617Y0287453D01*
X0502141Y0287459D01*
X0020687Y0287459D01*
X0020211Y0287453D01*
X0019736Y0287436D01*
X0019261Y0287407D01*
X0018787Y0287367D01*
X0018314Y0287315D01*
X0017843Y0287252D01*
X0017373Y0287178D01*
X0016905Y0287092D01*
X0016439Y0286995D01*
X0015976Y0286887D01*
X0015516Y0286768D01*
X0015058Y0286637D01*
X0014604Y0286496D01*
X0014153Y0286343D01*
X0013707Y0286180D01*
X0013264Y0286006D01*
X0012826Y0285821D01*
X0012392Y0285626D01*
X0011963Y0285420D01*
X0011539Y0285204D01*
X0011120Y0284978D01*
X0010707Y0284742D01*
X0010300Y0284496D01*
X0009899Y0284240D01*
X0009505Y0283974D01*
X0009116Y0283699D01*
X0008735Y0283415D01*
X0008361Y0283122D01*
X0007993Y0282820D01*
X0007633Y0282508D01*
X0007281Y0282189D01*
X0006937Y0281861D01*
X0006600Y0281524D01*
X0006272Y0281180D01*
X0005953Y0280828D01*
X0005641Y0280468D01*
X0005339Y0280100D01*
X0005046Y0279726D01*
X0004762Y0279345D01*
X0004487Y0278956D01*
X0004221Y0278562D01*
X0003965Y0278161D01*
X0003719Y0277754D01*
X0003483Y0277341D01*
X0003257Y0276922D01*
X0003041Y0276498D01*
X0002835Y0276069D01*
X0002640Y0275635D01*
X0002455Y0275197D01*
X0002281Y0274754D01*
X0002118Y0274308D01*
X0001965Y0273857D01*
X0001824Y0273403D01*
X0001693Y0272945D01*
X0001574Y0272485D01*
X0001466Y0272022D01*
X0001369Y0271556D01*
X0001283Y0271088D01*
X0001209Y0270618D01*
X0001146Y0270147D01*
X0001094Y0269674D01*
X0001054Y0269200D01*
X0001025Y0268725D01*
X0001008Y0268250D01*
X0001002Y0267774D01*
X0001002Y0020687D01*
X0001008Y0020211D01*
X0001025Y0019736D01*
X0001054Y0019261D01*
X0001094Y0018787D01*
X0001146Y0018314D01*
X0001209Y0017843D01*
X0001283Y0017373D01*
X0001369Y0016905D01*
X0001466Y0016439D01*
X0001574Y0015976D01*
X0001693Y0015516D01*
X0001824Y0015058D01*
X0001965Y0014604D01*
X0002118Y0014153D01*
X0002281Y0013707D01*
X0002455Y0013264D01*
X0002640Y0012826D01*
X0002835Y0012392D01*
X0003041Y0011963D01*
X0003257Y0011539D01*
X0003483Y0011120D01*
X0003719Y0010707D01*
X0003965Y0010300D01*
X0004221Y0009899D01*
X0004487Y0009505D01*
X0004762Y0009116D01*
X0005046Y0008735D01*
X0005339Y0008361D01*
X0005641Y0007993D01*
X0005953Y0007633D01*
X0006272Y0007281D01*
X0006600Y0006937D01*
X0006937Y0006600D01*
X0007281Y0006272D01*
X0007633Y0005953D01*
X0007993Y0005641D01*
X0008361Y0005339D01*
X0008735Y0005046D01*
X0009116Y0004762D01*
X0009505Y0004487D01*
X0009899Y0004221D01*
X0010300Y0003965D01*
X0010707Y0003719D01*
X0011120Y0003483D01*
X0011539Y0003257D01*
X0011963Y0003041D01*
X0012392Y0002835D01*
X0012826Y0002640D01*
X0013264Y0002455D01*
X0013707Y0002281D01*
X0014153Y0002118D01*
X0014604Y0001965D01*
X0015058Y0001824D01*
X0015516Y0001693D01*
X0015976Y0001574D01*
X0016439Y0001466D01*
X0016905Y0001369D01*
X0017373Y0001283D01*
X0017843Y0001209D01*
X0018314Y0001146D01*
X0018787Y0001094D01*
X0019261Y0001054D01*
X0019736Y0001025D01*
X0020211Y0001008D01*
X0020687Y0001002D01*
X0092492Y0016750D02*
X0092494Y0016908D01*
X0092500Y0017066D01*
X0092510Y0017224D01*
X0092524Y0017382D01*
X0092542Y0017539D01*
X0092563Y0017696D01*
X0092589Y0017852D01*
X0092619Y0018008D01*
X0092652Y0018163D01*
X0092690Y0018316D01*
X0092731Y0018469D01*
X0092776Y0018621D01*
X0092825Y0018772D01*
X0092878Y0018921D01*
X0092934Y0019069D01*
X0092994Y0019215D01*
X0093058Y0019360D01*
X0093126Y0019503D01*
X0093197Y0019645D01*
X0093271Y0019785D01*
X0093349Y0019922D01*
X0093431Y0020058D01*
X0093515Y0020192D01*
X0093604Y0020323D01*
X0093695Y0020452D01*
X0093790Y0020579D01*
X0093887Y0020704D01*
X0093988Y0020826D01*
X0094092Y0020945D01*
X0094199Y0021062D01*
X0094309Y0021176D01*
X0094422Y0021287D01*
X0094537Y0021396D01*
X0094655Y0021501D01*
X0094776Y0021603D01*
X0094899Y0021703D01*
X0095025Y0021799D01*
X0095153Y0021892D01*
X0095283Y0021982D01*
X0095416Y0022068D01*
X0095551Y0022152D01*
X0095687Y0022231D01*
X0095826Y0022308D01*
X0095967Y0022380D01*
X0096109Y0022450D01*
X0096253Y0022515D01*
X0096399Y0022577D01*
X0096546Y0022635D01*
X0096695Y0022690D01*
X0096845Y0022741D01*
X0096996Y0022788D01*
X0097148Y0022831D01*
X0097301Y0022870D01*
X0097456Y0022906D01*
X0097611Y0022937D01*
X0097767Y0022965D01*
X0097923Y0022989D01*
X0098080Y0023009D01*
X0098238Y0023025D01*
X0098395Y0023037D01*
X0098554Y0023045D01*
X0098712Y0023049D01*
X0098870Y0023049D01*
X0099028Y0023045D01*
X0099187Y0023037D01*
X0099344Y0023025D01*
X0099502Y0023009D01*
X0099659Y0022989D01*
X0099815Y0022965D01*
X0099971Y0022937D01*
X0100126Y0022906D01*
X0100281Y0022870D01*
X0100434Y0022831D01*
X0100586Y0022788D01*
X0100737Y0022741D01*
X0100887Y0022690D01*
X0101036Y0022635D01*
X0101183Y0022577D01*
X0101329Y0022515D01*
X0101473Y0022450D01*
X0101615Y0022380D01*
X0101756Y0022308D01*
X0101895Y0022231D01*
X0102031Y0022152D01*
X0102166Y0022068D01*
X0102299Y0021982D01*
X0102429Y0021892D01*
X0102557Y0021799D01*
X0102683Y0021703D01*
X0102806Y0021603D01*
X0102927Y0021501D01*
X0103045Y0021396D01*
X0103160Y0021287D01*
X0103273Y0021176D01*
X0103383Y0021062D01*
X0103490Y0020945D01*
X0103594Y0020826D01*
X0103695Y0020704D01*
X0103792Y0020579D01*
X0103887Y0020452D01*
X0103978Y0020323D01*
X0104067Y0020192D01*
X0104151Y0020058D01*
X0104233Y0019922D01*
X0104311Y0019785D01*
X0104385Y0019645D01*
X0104456Y0019503D01*
X0104524Y0019360D01*
X0104588Y0019215D01*
X0104648Y0019069D01*
X0104704Y0018921D01*
X0104757Y0018772D01*
X0104806Y0018621D01*
X0104851Y0018469D01*
X0104892Y0018316D01*
X0104930Y0018163D01*
X0104963Y0018008D01*
X0104993Y0017852D01*
X0105019Y0017696D01*
X0105040Y0017539D01*
X0105058Y0017382D01*
X0105072Y0017224D01*
X0105082Y0017066D01*
X0105088Y0016908D01*
X0105090Y0016750D01*
X0105088Y0016592D01*
X0105082Y0016434D01*
X0105072Y0016276D01*
X0105058Y0016118D01*
X0105040Y0015961D01*
X0105019Y0015804D01*
X0104993Y0015648D01*
X0104963Y0015492D01*
X0104930Y0015337D01*
X0104892Y0015184D01*
X0104851Y0015031D01*
X0104806Y0014879D01*
X0104757Y0014728D01*
X0104704Y0014579D01*
X0104648Y0014431D01*
X0104588Y0014285D01*
X0104524Y0014140D01*
X0104456Y0013997D01*
X0104385Y0013855D01*
X0104311Y0013715D01*
X0104233Y0013578D01*
X0104151Y0013442D01*
X0104067Y0013308D01*
X0103978Y0013177D01*
X0103887Y0013048D01*
X0103792Y0012921D01*
X0103695Y0012796D01*
X0103594Y0012674D01*
X0103490Y0012555D01*
X0103383Y0012438D01*
X0103273Y0012324D01*
X0103160Y0012213D01*
X0103045Y0012104D01*
X0102927Y0011999D01*
X0102806Y0011897D01*
X0102683Y0011797D01*
X0102557Y0011701D01*
X0102429Y0011608D01*
X0102299Y0011518D01*
X0102166Y0011432D01*
X0102031Y0011348D01*
X0101895Y0011269D01*
X0101756Y0011192D01*
X0101615Y0011120D01*
X0101473Y0011050D01*
X0101329Y0010985D01*
X0101183Y0010923D01*
X0101036Y0010865D01*
X0100887Y0010810D01*
X0100737Y0010759D01*
X0100586Y0010712D01*
X0100434Y0010669D01*
X0100281Y0010630D01*
X0100126Y0010594D01*
X0099971Y0010563D01*
X0099815Y0010535D01*
X0099659Y0010511D01*
X0099502Y0010491D01*
X0099344Y0010475D01*
X0099187Y0010463D01*
X0099028Y0010455D01*
X0098870Y0010451D01*
X0098712Y0010451D01*
X0098554Y0010455D01*
X0098395Y0010463D01*
X0098238Y0010475D01*
X0098080Y0010491D01*
X0097923Y0010511D01*
X0097767Y0010535D01*
X0097611Y0010563D01*
X0097456Y0010594D01*
X0097301Y0010630D01*
X0097148Y0010669D01*
X0096996Y0010712D01*
X0096845Y0010759D01*
X0096695Y0010810D01*
X0096546Y0010865D01*
X0096399Y0010923D01*
X0096253Y0010985D01*
X0096109Y0011050D01*
X0095967Y0011120D01*
X0095826Y0011192D01*
X0095687Y0011269D01*
X0095551Y0011348D01*
X0095416Y0011432D01*
X0095283Y0011518D01*
X0095153Y0011608D01*
X0095025Y0011701D01*
X0094899Y0011797D01*
X0094776Y0011897D01*
X0094655Y0011999D01*
X0094537Y0012104D01*
X0094422Y0012213D01*
X0094309Y0012324D01*
X0094199Y0012438D01*
X0094092Y0012555D01*
X0093988Y0012674D01*
X0093887Y0012796D01*
X0093790Y0012921D01*
X0093695Y0013048D01*
X0093604Y0013177D01*
X0093515Y0013308D01*
X0093431Y0013442D01*
X0093349Y0013578D01*
X0093271Y0013715D01*
X0093197Y0013855D01*
X0093126Y0013997D01*
X0093058Y0014140D01*
X0092994Y0014285D01*
X0092934Y0014431D01*
X0092878Y0014579D01*
X0092825Y0014728D01*
X0092776Y0014879D01*
X0092731Y0015031D01*
X0092690Y0015184D01*
X0092652Y0015337D01*
X0092619Y0015492D01*
X0092589Y0015648D01*
X0092563Y0015804D01*
X0092542Y0015961D01*
X0092524Y0016118D01*
X0092510Y0016276D01*
X0092500Y0016434D01*
X0092494Y0016592D01*
X0092492Y0016750D01*
X0080005Y0191704D02*
X0079978Y0191706D01*
X0079951Y0191711D01*
X0079925Y0191721D01*
X0079901Y0191733D01*
X0079879Y0191749D01*
X0079859Y0191767D01*
X0079842Y0191789D01*
X0079827Y0191812D01*
X0079817Y0191837D01*
X0079809Y0191863D01*
X0079805Y0191890D01*
X0079805Y0191918D01*
X0079809Y0191945D01*
X0079817Y0191971D01*
X0079827Y0191996D01*
X0079842Y0192019D01*
X0079859Y0192041D01*
X0079879Y0192059D01*
X0079901Y0192075D01*
X0079925Y0192087D01*
X0079951Y0192097D01*
X0079978Y0192102D01*
X0080005Y0192104D01*
X0079978Y0192102D01*
X0079951Y0192097D01*
X0079925Y0192087D01*
X0079901Y0192075D01*
X0079879Y0192059D01*
X0079859Y0192041D01*
X0079842Y0192019D01*
X0079827Y0191996D01*
X0079817Y0191971D01*
X0079809Y0191945D01*
X0079805Y0191918D01*
X0079805Y0191890D01*
X0079809Y0191863D01*
X0079817Y0191837D01*
X0079827Y0191812D01*
X0079842Y0191789D01*
X0079859Y0191767D01*
X0079879Y0191749D01*
X0079901Y0191733D01*
X0079925Y0191721D01*
X0079951Y0191711D01*
X0079978Y0191706D01*
X0080005Y0191704D01*
X0080031Y0191706D01*
X0080057Y0191711D01*
X0080082Y0191719D01*
X0080105Y0191731D01*
X0080127Y0191745D01*
X0080146Y0191763D01*
X0080164Y0191782D01*
X0080178Y0191804D01*
X0080190Y0191827D01*
X0080198Y0191852D01*
X0080203Y0191878D01*
X0080205Y0191904D01*
X0080005Y0191704D02*
X0079979Y0191706D01*
X0079953Y0191711D01*
X0079928Y0191719D01*
X0079905Y0191731D01*
X0079883Y0191745D01*
X0079864Y0191763D01*
X0079846Y0191782D01*
X0079832Y0191804D01*
X0079820Y0191827D01*
X0079812Y0191852D01*
X0079807Y0191878D01*
X0079805Y0191904D01*
X0092492Y0241750D02*
X0092494Y0241908D01*
X0092500Y0242066D01*
X0092510Y0242224D01*
X0092524Y0242382D01*
X0092542Y0242539D01*
X0092563Y0242696D01*
X0092589Y0242852D01*
X0092619Y0243008D01*
X0092652Y0243163D01*
X0092690Y0243316D01*
X0092731Y0243469D01*
X0092776Y0243621D01*
X0092825Y0243772D01*
X0092878Y0243921D01*
X0092934Y0244069D01*
X0092994Y0244215D01*
X0093058Y0244360D01*
X0093126Y0244503D01*
X0093197Y0244645D01*
X0093271Y0244785D01*
X0093349Y0244922D01*
X0093431Y0245058D01*
X0093515Y0245192D01*
X0093604Y0245323D01*
X0093695Y0245452D01*
X0093790Y0245579D01*
X0093887Y0245704D01*
X0093988Y0245826D01*
X0094092Y0245945D01*
X0094199Y0246062D01*
X0094309Y0246176D01*
X0094422Y0246287D01*
X0094537Y0246396D01*
X0094655Y0246501D01*
X0094776Y0246603D01*
X0094899Y0246703D01*
X0095025Y0246799D01*
X0095153Y0246892D01*
X0095283Y0246982D01*
X0095416Y0247068D01*
X0095551Y0247152D01*
X0095687Y0247231D01*
X0095826Y0247308D01*
X0095967Y0247380D01*
X0096109Y0247450D01*
X0096253Y0247515D01*
X0096399Y0247577D01*
X0096546Y0247635D01*
X0096695Y0247690D01*
X0096845Y0247741D01*
X0096996Y0247788D01*
X0097148Y0247831D01*
X0097301Y0247870D01*
X0097456Y0247906D01*
X0097611Y0247937D01*
X0097767Y0247965D01*
X0097923Y0247989D01*
X0098080Y0248009D01*
X0098238Y0248025D01*
X0098395Y0248037D01*
X0098554Y0248045D01*
X0098712Y0248049D01*
X0098870Y0248049D01*
X0099028Y0248045D01*
X0099187Y0248037D01*
X0099344Y0248025D01*
X0099502Y0248009D01*
X0099659Y0247989D01*
X0099815Y0247965D01*
X0099971Y0247937D01*
X0100126Y0247906D01*
X0100281Y0247870D01*
X0100434Y0247831D01*
X0100586Y0247788D01*
X0100737Y0247741D01*
X0100887Y0247690D01*
X0101036Y0247635D01*
X0101183Y0247577D01*
X0101329Y0247515D01*
X0101473Y0247450D01*
X0101615Y0247380D01*
X0101756Y0247308D01*
X0101895Y0247231D01*
X0102031Y0247152D01*
X0102166Y0247068D01*
X0102299Y0246982D01*
X0102429Y0246892D01*
X0102557Y0246799D01*
X0102683Y0246703D01*
X0102806Y0246603D01*
X0102927Y0246501D01*
X0103045Y0246396D01*
X0103160Y0246287D01*
X0103273Y0246176D01*
X0103383Y0246062D01*
X0103490Y0245945D01*
X0103594Y0245826D01*
X0103695Y0245704D01*
X0103792Y0245579D01*
X0103887Y0245452D01*
X0103978Y0245323D01*
X0104067Y0245192D01*
X0104151Y0245058D01*
X0104233Y0244922D01*
X0104311Y0244785D01*
X0104385Y0244645D01*
X0104456Y0244503D01*
X0104524Y0244360D01*
X0104588Y0244215D01*
X0104648Y0244069D01*
X0104704Y0243921D01*
X0104757Y0243772D01*
X0104806Y0243621D01*
X0104851Y0243469D01*
X0104892Y0243316D01*
X0104930Y0243163D01*
X0104963Y0243008D01*
X0104993Y0242852D01*
X0105019Y0242696D01*
X0105040Y0242539D01*
X0105058Y0242382D01*
X0105072Y0242224D01*
X0105082Y0242066D01*
X0105088Y0241908D01*
X0105090Y0241750D01*
X0105088Y0241592D01*
X0105082Y0241434D01*
X0105072Y0241276D01*
X0105058Y0241118D01*
X0105040Y0240961D01*
X0105019Y0240804D01*
X0104993Y0240648D01*
X0104963Y0240492D01*
X0104930Y0240337D01*
X0104892Y0240184D01*
X0104851Y0240031D01*
X0104806Y0239879D01*
X0104757Y0239728D01*
X0104704Y0239579D01*
X0104648Y0239431D01*
X0104588Y0239285D01*
X0104524Y0239140D01*
X0104456Y0238997D01*
X0104385Y0238855D01*
X0104311Y0238715D01*
X0104233Y0238578D01*
X0104151Y0238442D01*
X0104067Y0238308D01*
X0103978Y0238177D01*
X0103887Y0238048D01*
X0103792Y0237921D01*
X0103695Y0237796D01*
X0103594Y0237674D01*
X0103490Y0237555D01*
X0103383Y0237438D01*
X0103273Y0237324D01*
X0103160Y0237213D01*
X0103045Y0237104D01*
X0102927Y0236999D01*
X0102806Y0236897D01*
X0102683Y0236797D01*
X0102557Y0236701D01*
X0102429Y0236608D01*
X0102299Y0236518D01*
X0102166Y0236432D01*
X0102031Y0236348D01*
X0101895Y0236269D01*
X0101756Y0236192D01*
X0101615Y0236120D01*
X0101473Y0236050D01*
X0101329Y0235985D01*
X0101183Y0235923D01*
X0101036Y0235865D01*
X0100887Y0235810D01*
X0100737Y0235759D01*
X0100586Y0235712D01*
X0100434Y0235669D01*
X0100281Y0235630D01*
X0100126Y0235594D01*
X0099971Y0235563D01*
X0099815Y0235535D01*
X0099659Y0235511D01*
X0099502Y0235491D01*
X0099344Y0235475D01*
X0099187Y0235463D01*
X0099028Y0235455D01*
X0098870Y0235451D01*
X0098712Y0235451D01*
X0098554Y0235455D01*
X0098395Y0235463D01*
X0098238Y0235475D01*
X0098080Y0235491D01*
X0097923Y0235511D01*
X0097767Y0235535D01*
X0097611Y0235563D01*
X0097456Y0235594D01*
X0097301Y0235630D01*
X0097148Y0235669D01*
X0096996Y0235712D01*
X0096845Y0235759D01*
X0096695Y0235810D01*
X0096546Y0235865D01*
X0096399Y0235923D01*
X0096253Y0235985D01*
X0096109Y0236050D01*
X0095967Y0236120D01*
X0095826Y0236192D01*
X0095687Y0236269D01*
X0095551Y0236348D01*
X0095416Y0236432D01*
X0095283Y0236518D01*
X0095153Y0236608D01*
X0095025Y0236701D01*
X0094899Y0236797D01*
X0094776Y0236897D01*
X0094655Y0236999D01*
X0094537Y0237104D01*
X0094422Y0237213D01*
X0094309Y0237324D01*
X0094199Y0237438D01*
X0094092Y0237555D01*
X0093988Y0237674D01*
X0093887Y0237796D01*
X0093790Y0237921D01*
X0093695Y0238048D01*
X0093604Y0238177D01*
X0093515Y0238308D01*
X0093431Y0238442D01*
X0093349Y0238578D01*
X0093271Y0238715D01*
X0093197Y0238855D01*
X0093126Y0238997D01*
X0093058Y0239140D01*
X0092994Y0239285D01*
X0092934Y0239431D01*
X0092878Y0239579D01*
X0092825Y0239728D01*
X0092776Y0239879D01*
X0092731Y0240031D01*
X0092690Y0240184D01*
X0092652Y0240337D01*
X0092619Y0240492D01*
X0092589Y0240648D01*
X0092563Y0240804D01*
X0092542Y0240961D01*
X0092524Y0241118D01*
X0092510Y0241276D01*
X0092500Y0241434D01*
X0092494Y0241592D01*
X0092492Y0241750D01*
X0447492Y0241750D02*
X0447494Y0241908D01*
X0447500Y0242066D01*
X0447510Y0242224D01*
X0447524Y0242382D01*
X0447542Y0242539D01*
X0447563Y0242696D01*
X0447589Y0242852D01*
X0447619Y0243008D01*
X0447652Y0243163D01*
X0447690Y0243316D01*
X0447731Y0243469D01*
X0447776Y0243621D01*
X0447825Y0243772D01*
X0447878Y0243921D01*
X0447934Y0244069D01*
X0447994Y0244215D01*
X0448058Y0244360D01*
X0448126Y0244503D01*
X0448197Y0244645D01*
X0448271Y0244785D01*
X0448349Y0244922D01*
X0448431Y0245058D01*
X0448515Y0245192D01*
X0448604Y0245323D01*
X0448695Y0245452D01*
X0448790Y0245579D01*
X0448887Y0245704D01*
X0448988Y0245826D01*
X0449092Y0245945D01*
X0449199Y0246062D01*
X0449309Y0246176D01*
X0449422Y0246287D01*
X0449537Y0246396D01*
X0449655Y0246501D01*
X0449776Y0246603D01*
X0449899Y0246703D01*
X0450025Y0246799D01*
X0450153Y0246892D01*
X0450283Y0246982D01*
X0450416Y0247068D01*
X0450551Y0247152D01*
X0450687Y0247231D01*
X0450826Y0247308D01*
X0450967Y0247380D01*
X0451109Y0247450D01*
X0451253Y0247515D01*
X0451399Y0247577D01*
X0451546Y0247635D01*
X0451695Y0247690D01*
X0451845Y0247741D01*
X0451996Y0247788D01*
X0452148Y0247831D01*
X0452301Y0247870D01*
X0452456Y0247906D01*
X0452611Y0247937D01*
X0452767Y0247965D01*
X0452923Y0247989D01*
X0453080Y0248009D01*
X0453238Y0248025D01*
X0453395Y0248037D01*
X0453554Y0248045D01*
X0453712Y0248049D01*
X0453870Y0248049D01*
X0454028Y0248045D01*
X0454187Y0248037D01*
X0454344Y0248025D01*
X0454502Y0248009D01*
X0454659Y0247989D01*
X0454815Y0247965D01*
X0454971Y0247937D01*
X0455126Y0247906D01*
X0455281Y0247870D01*
X0455434Y0247831D01*
X0455586Y0247788D01*
X0455737Y0247741D01*
X0455887Y0247690D01*
X0456036Y0247635D01*
X0456183Y0247577D01*
X0456329Y0247515D01*
X0456473Y0247450D01*
X0456615Y0247380D01*
X0456756Y0247308D01*
X0456895Y0247231D01*
X0457031Y0247152D01*
X0457166Y0247068D01*
X0457299Y0246982D01*
X0457429Y0246892D01*
X0457557Y0246799D01*
X0457683Y0246703D01*
X0457806Y0246603D01*
X0457927Y0246501D01*
X0458045Y0246396D01*
X0458160Y0246287D01*
X0458273Y0246176D01*
X0458383Y0246062D01*
X0458490Y0245945D01*
X0458594Y0245826D01*
X0458695Y0245704D01*
X0458792Y0245579D01*
X0458887Y0245452D01*
X0458978Y0245323D01*
X0459067Y0245192D01*
X0459151Y0245058D01*
X0459233Y0244922D01*
X0459311Y0244785D01*
X0459385Y0244645D01*
X0459456Y0244503D01*
X0459524Y0244360D01*
X0459588Y0244215D01*
X0459648Y0244069D01*
X0459704Y0243921D01*
X0459757Y0243772D01*
X0459806Y0243621D01*
X0459851Y0243469D01*
X0459892Y0243316D01*
X0459930Y0243163D01*
X0459963Y0243008D01*
X0459993Y0242852D01*
X0460019Y0242696D01*
X0460040Y0242539D01*
X0460058Y0242382D01*
X0460072Y0242224D01*
X0460082Y0242066D01*
X0460088Y0241908D01*
X0460090Y0241750D01*
X0460088Y0241592D01*
X0460082Y0241434D01*
X0460072Y0241276D01*
X0460058Y0241118D01*
X0460040Y0240961D01*
X0460019Y0240804D01*
X0459993Y0240648D01*
X0459963Y0240492D01*
X0459930Y0240337D01*
X0459892Y0240184D01*
X0459851Y0240031D01*
X0459806Y0239879D01*
X0459757Y0239728D01*
X0459704Y0239579D01*
X0459648Y0239431D01*
X0459588Y0239285D01*
X0459524Y0239140D01*
X0459456Y0238997D01*
X0459385Y0238855D01*
X0459311Y0238715D01*
X0459233Y0238578D01*
X0459151Y0238442D01*
X0459067Y0238308D01*
X0458978Y0238177D01*
X0458887Y0238048D01*
X0458792Y0237921D01*
X0458695Y0237796D01*
X0458594Y0237674D01*
X0458490Y0237555D01*
X0458383Y0237438D01*
X0458273Y0237324D01*
X0458160Y0237213D01*
X0458045Y0237104D01*
X0457927Y0236999D01*
X0457806Y0236897D01*
X0457683Y0236797D01*
X0457557Y0236701D01*
X0457429Y0236608D01*
X0457299Y0236518D01*
X0457166Y0236432D01*
X0457031Y0236348D01*
X0456895Y0236269D01*
X0456756Y0236192D01*
X0456615Y0236120D01*
X0456473Y0236050D01*
X0456329Y0235985D01*
X0456183Y0235923D01*
X0456036Y0235865D01*
X0455887Y0235810D01*
X0455737Y0235759D01*
X0455586Y0235712D01*
X0455434Y0235669D01*
X0455281Y0235630D01*
X0455126Y0235594D01*
X0454971Y0235563D01*
X0454815Y0235535D01*
X0454659Y0235511D01*
X0454502Y0235491D01*
X0454344Y0235475D01*
X0454187Y0235463D01*
X0454028Y0235455D01*
X0453870Y0235451D01*
X0453712Y0235451D01*
X0453554Y0235455D01*
X0453395Y0235463D01*
X0453238Y0235475D01*
X0453080Y0235491D01*
X0452923Y0235511D01*
X0452767Y0235535D01*
X0452611Y0235563D01*
X0452456Y0235594D01*
X0452301Y0235630D01*
X0452148Y0235669D01*
X0451996Y0235712D01*
X0451845Y0235759D01*
X0451695Y0235810D01*
X0451546Y0235865D01*
X0451399Y0235923D01*
X0451253Y0235985D01*
X0451109Y0236050D01*
X0450967Y0236120D01*
X0450826Y0236192D01*
X0450687Y0236269D01*
X0450551Y0236348D01*
X0450416Y0236432D01*
X0450283Y0236518D01*
X0450153Y0236608D01*
X0450025Y0236701D01*
X0449899Y0236797D01*
X0449776Y0236897D01*
X0449655Y0236999D01*
X0449537Y0237104D01*
X0449422Y0237213D01*
X0449309Y0237324D01*
X0449199Y0237438D01*
X0449092Y0237555D01*
X0448988Y0237674D01*
X0448887Y0237796D01*
X0448790Y0237921D01*
X0448695Y0238048D01*
X0448604Y0238177D01*
X0448515Y0238308D01*
X0448431Y0238442D01*
X0448349Y0238578D01*
X0448271Y0238715D01*
X0448197Y0238855D01*
X0448126Y0238997D01*
X0448058Y0239140D01*
X0447994Y0239285D01*
X0447934Y0239431D01*
X0447878Y0239579D01*
X0447825Y0239728D01*
X0447776Y0239879D01*
X0447731Y0240031D01*
X0447690Y0240184D01*
X0447652Y0240337D01*
X0447619Y0240492D01*
X0447589Y0240648D01*
X0447563Y0240804D01*
X0447542Y0240961D01*
X0447524Y0241118D01*
X0447510Y0241276D01*
X0447500Y0241434D01*
X0447494Y0241592D01*
X0447492Y0241750D01*
X0447492Y0016750D02*
X0447494Y0016908D01*
X0447500Y0017066D01*
X0447510Y0017224D01*
X0447524Y0017382D01*
X0447542Y0017539D01*
X0447563Y0017696D01*
X0447589Y0017852D01*
X0447619Y0018008D01*
X0447652Y0018163D01*
X0447690Y0018316D01*
X0447731Y0018469D01*
X0447776Y0018621D01*
X0447825Y0018772D01*
X0447878Y0018921D01*
X0447934Y0019069D01*
X0447994Y0019215D01*
X0448058Y0019360D01*
X0448126Y0019503D01*
X0448197Y0019645D01*
X0448271Y0019785D01*
X0448349Y0019922D01*
X0448431Y0020058D01*
X0448515Y0020192D01*
X0448604Y0020323D01*
X0448695Y0020452D01*
X0448790Y0020579D01*
X0448887Y0020704D01*
X0448988Y0020826D01*
X0449092Y0020945D01*
X0449199Y0021062D01*
X0449309Y0021176D01*
X0449422Y0021287D01*
X0449537Y0021396D01*
X0449655Y0021501D01*
X0449776Y0021603D01*
X0449899Y0021703D01*
X0450025Y0021799D01*
X0450153Y0021892D01*
X0450283Y0021982D01*
X0450416Y0022068D01*
X0450551Y0022152D01*
X0450687Y0022231D01*
X0450826Y0022308D01*
X0450967Y0022380D01*
X0451109Y0022450D01*
X0451253Y0022515D01*
X0451399Y0022577D01*
X0451546Y0022635D01*
X0451695Y0022690D01*
X0451845Y0022741D01*
X0451996Y0022788D01*
X0452148Y0022831D01*
X0452301Y0022870D01*
X0452456Y0022906D01*
X0452611Y0022937D01*
X0452767Y0022965D01*
X0452923Y0022989D01*
X0453080Y0023009D01*
X0453238Y0023025D01*
X0453395Y0023037D01*
X0453554Y0023045D01*
X0453712Y0023049D01*
X0453870Y0023049D01*
X0454028Y0023045D01*
X0454187Y0023037D01*
X0454344Y0023025D01*
X0454502Y0023009D01*
X0454659Y0022989D01*
X0454815Y0022965D01*
X0454971Y0022937D01*
X0455126Y0022906D01*
X0455281Y0022870D01*
X0455434Y0022831D01*
X0455586Y0022788D01*
X0455737Y0022741D01*
X0455887Y0022690D01*
X0456036Y0022635D01*
X0456183Y0022577D01*
X0456329Y0022515D01*
X0456473Y0022450D01*
X0456615Y0022380D01*
X0456756Y0022308D01*
X0456895Y0022231D01*
X0457031Y0022152D01*
X0457166Y0022068D01*
X0457299Y0021982D01*
X0457429Y0021892D01*
X0457557Y0021799D01*
X0457683Y0021703D01*
X0457806Y0021603D01*
X0457927Y0021501D01*
X0458045Y0021396D01*
X0458160Y0021287D01*
X0458273Y0021176D01*
X0458383Y0021062D01*
X0458490Y0020945D01*
X0458594Y0020826D01*
X0458695Y0020704D01*
X0458792Y0020579D01*
X0458887Y0020452D01*
X0458978Y0020323D01*
X0459067Y0020192D01*
X0459151Y0020058D01*
X0459233Y0019922D01*
X0459311Y0019785D01*
X0459385Y0019645D01*
X0459456Y0019503D01*
X0459524Y0019360D01*
X0459588Y0019215D01*
X0459648Y0019069D01*
X0459704Y0018921D01*
X0459757Y0018772D01*
X0459806Y0018621D01*
X0459851Y0018469D01*
X0459892Y0018316D01*
X0459930Y0018163D01*
X0459963Y0018008D01*
X0459993Y0017852D01*
X0460019Y0017696D01*
X0460040Y0017539D01*
X0460058Y0017382D01*
X0460072Y0017224D01*
X0460082Y0017066D01*
X0460088Y0016908D01*
X0460090Y0016750D01*
X0460088Y0016592D01*
X0460082Y0016434D01*
X0460072Y0016276D01*
X0460058Y0016118D01*
X0460040Y0015961D01*
X0460019Y0015804D01*
X0459993Y0015648D01*
X0459963Y0015492D01*
X0459930Y0015337D01*
X0459892Y0015184D01*
X0459851Y0015031D01*
X0459806Y0014879D01*
X0459757Y0014728D01*
X0459704Y0014579D01*
X0459648Y0014431D01*
X0459588Y0014285D01*
X0459524Y0014140D01*
X0459456Y0013997D01*
X0459385Y0013855D01*
X0459311Y0013715D01*
X0459233Y0013578D01*
X0459151Y0013442D01*
X0459067Y0013308D01*
X0458978Y0013177D01*
X0458887Y0013048D01*
X0458792Y0012921D01*
X0458695Y0012796D01*
X0458594Y0012674D01*
X0458490Y0012555D01*
X0458383Y0012438D01*
X0458273Y0012324D01*
X0458160Y0012213D01*
X0458045Y0012104D01*
X0457927Y0011999D01*
X0457806Y0011897D01*
X0457683Y0011797D01*
X0457557Y0011701D01*
X0457429Y0011608D01*
X0457299Y0011518D01*
X0457166Y0011432D01*
X0457031Y0011348D01*
X0456895Y0011269D01*
X0456756Y0011192D01*
X0456615Y0011120D01*
X0456473Y0011050D01*
X0456329Y0010985D01*
X0456183Y0010923D01*
X0456036Y0010865D01*
X0455887Y0010810D01*
X0455737Y0010759D01*
X0455586Y0010712D01*
X0455434Y0010669D01*
X0455281Y0010630D01*
X0455126Y0010594D01*
X0454971Y0010563D01*
X0454815Y0010535D01*
X0454659Y0010511D01*
X0454502Y0010491D01*
X0454344Y0010475D01*
X0454187Y0010463D01*
X0454028Y0010455D01*
X0453870Y0010451D01*
X0453712Y0010451D01*
X0453554Y0010455D01*
X0453395Y0010463D01*
X0453238Y0010475D01*
X0453080Y0010491D01*
X0452923Y0010511D01*
X0452767Y0010535D01*
X0452611Y0010563D01*
X0452456Y0010594D01*
X0452301Y0010630D01*
X0452148Y0010669D01*
X0451996Y0010712D01*
X0451845Y0010759D01*
X0451695Y0010810D01*
X0451546Y0010865D01*
X0451399Y0010923D01*
X0451253Y0010985D01*
X0451109Y0011050D01*
X0450967Y0011120D01*
X0450826Y0011192D01*
X0450687Y0011269D01*
X0450551Y0011348D01*
X0450416Y0011432D01*
X0450283Y0011518D01*
X0450153Y0011608D01*
X0450025Y0011701D01*
X0449899Y0011797D01*
X0449776Y0011897D01*
X0449655Y0011999D01*
X0449537Y0012104D01*
X0449422Y0012213D01*
X0449309Y0012324D01*
X0449199Y0012438D01*
X0449092Y0012555D01*
X0448988Y0012674D01*
X0448887Y0012796D01*
X0448790Y0012921D01*
X0448695Y0013048D01*
X0448604Y0013177D01*
X0448515Y0013308D01*
X0448431Y0013442D01*
X0448349Y0013578D01*
X0448271Y0013715D01*
X0448197Y0013855D01*
X0448126Y0013997D01*
X0448058Y0014140D01*
X0447994Y0014285D01*
X0447934Y0014431D01*
X0447878Y0014579D01*
X0447825Y0014728D01*
X0447776Y0014879D01*
X0447731Y0015031D01*
X0447690Y0015184D01*
X0447652Y0015337D01*
X0447619Y0015492D01*
X0447589Y0015648D01*
X0447563Y0015804D01*
X0447542Y0015961D01*
X0447524Y0016118D01*
X0447510Y0016276D01*
X0447500Y0016434D01*
X0447494Y0016592D01*
X0447492Y0016750D01*
D11*
X0368791Y0129150D02*
X0368791Y0134350D01*
X0358791Y0134350D02*
X0358791Y0129150D01*
X0348791Y0129150D02*
X0348791Y0134350D01*
X0338791Y0134350D02*
X0338791Y0129150D01*
X0328791Y0129150D02*
X0328791Y0134350D01*
X0308791Y0134350D02*
X0308791Y0129150D01*
X0298791Y0129150D02*
X0298791Y0134350D01*
X0288791Y0134350D02*
X0288791Y0129150D01*
X0278791Y0129150D02*
X0278791Y0134350D01*
X0268791Y0134350D02*
X0268791Y0129150D01*
X0248791Y0129150D02*
X0248791Y0134350D01*
X0238791Y0134350D02*
X0238791Y0129150D01*
X0228791Y0129150D02*
X0228791Y0134350D01*
X0218791Y0134350D02*
X0218791Y0129150D01*
X0208791Y0129150D02*
X0208791Y0134350D01*
X0193791Y0134350D02*
X0193791Y0129150D01*
X0183791Y0129150D02*
X0183791Y0134350D01*
X0173791Y0134350D02*
X0173791Y0129150D01*
X0163791Y0129150D02*
X0163791Y0134350D01*
X0153791Y0134350D02*
X0153791Y0129150D01*
X0143791Y0129150D02*
X0143791Y0134350D01*
X0133791Y0134350D02*
X0133791Y0129150D01*
X0123791Y0129150D02*
X0123791Y0134350D01*
X0123791Y0159150D02*
X0123791Y0164350D01*
X0133791Y0164350D02*
X0133791Y0159150D01*
X0143791Y0159150D02*
X0143791Y0164350D01*
X0153791Y0164350D02*
X0153791Y0159150D01*
X0163791Y0159150D02*
X0163791Y0164350D01*
X0173791Y0164350D02*
X0173791Y0159150D01*
X0183791Y0159150D02*
X0183791Y0164350D01*
X0193791Y0164350D02*
X0193791Y0159150D01*
X0208791Y0189150D02*
X0208791Y0194350D01*
X0218791Y0194350D02*
X0218791Y0189150D01*
X0228791Y0189150D02*
X0228791Y0194350D01*
X0238791Y0194350D02*
X0238791Y0189150D01*
X0248791Y0189150D02*
X0248791Y0194350D01*
X0268791Y0194350D02*
X0268791Y0189150D01*
X0278791Y0189150D02*
X0278791Y0194350D01*
X0288791Y0194350D02*
X0288791Y0189150D01*
X0298791Y0189150D02*
X0298791Y0194350D01*
X0308791Y0194350D02*
X0308791Y0189150D01*
X0328791Y0189150D02*
X0328791Y0194350D01*
X0338791Y0194350D02*
X0338791Y0189150D01*
X0348791Y0189150D02*
X0348791Y0194350D01*
X0358791Y0194350D02*
X0358791Y0189150D01*
X0368791Y0189150D02*
X0368791Y0194350D01*
X0363791Y0214150D02*
X0363791Y0219350D01*
X0353791Y0219350D02*
X0353791Y0214150D01*
X0343791Y0214150D02*
X0343791Y0219350D01*
X0333791Y0219350D02*
X0333791Y0214150D01*
X0373791Y0214150D02*
X0373791Y0219350D01*
X0393791Y0219350D02*
X0393791Y0214150D01*
X0403791Y0214150D02*
X0403791Y0219350D01*
X0413791Y0219350D02*
X0413791Y0214150D01*
X0423791Y0214150D02*
X0423791Y0219350D01*
X0433791Y0219350D02*
X0433791Y0214150D01*
X0476191Y0211750D02*
X0481391Y0211750D01*
X0481391Y0221750D02*
X0476191Y0221750D01*
X0476191Y0231750D02*
X0481391Y0231750D01*
X0481391Y0241750D02*
X0476191Y0241750D01*
X0476191Y0251750D02*
X0481391Y0251750D01*
X0506191Y0251750D02*
X0511391Y0251750D01*
X0511391Y0241750D02*
X0506191Y0241750D01*
X0506191Y0231750D02*
X0511391Y0231750D01*
X0511391Y0221750D02*
X0506191Y0221750D01*
X0506191Y0211750D02*
X0511391Y0211750D01*
X0511391Y0201750D02*
X0506191Y0201750D01*
X0506191Y0191750D02*
X0511391Y0191750D01*
X0511391Y0181750D02*
X0506191Y0181750D01*
X0481391Y0181750D02*
X0476191Y0181750D01*
X0476191Y0191750D02*
X0481391Y0191750D01*
X0481391Y0201750D02*
X0476191Y0201750D01*
X0433791Y0274150D02*
X0433791Y0279350D01*
X0423791Y0279350D02*
X0423791Y0274150D01*
X0413791Y0274150D02*
X0413791Y0279350D01*
X0403791Y0279350D02*
X0403791Y0274150D01*
X0393791Y0274150D02*
X0393791Y0279350D01*
X0373791Y0279350D02*
X0373791Y0274150D01*
X0363791Y0274150D02*
X0363791Y0279350D01*
X0353791Y0279350D02*
X0353791Y0274150D01*
X0343791Y0274150D02*
X0343791Y0279350D01*
X0333791Y0279350D02*
X0333791Y0274150D01*
D12*
X0062728Y0211750D03*
X0039106Y0211750D03*
X0050917Y0193246D03*
D13*
X0048791Y0246750D03*
X0018791Y0246750D03*
X0228791Y0114250D03*
X0223791Y0106750D03*
X0233791Y0106750D03*
X0244145Y0084427D03*
X0244145Y0074427D03*
X0263830Y0082616D03*
X0303201Y0084427D03*
X0303201Y0074427D03*
X0322886Y0082616D03*
X0343791Y0106750D03*
X0353791Y0106750D03*
X0348791Y0114250D03*
X0362256Y0084427D03*
X0362256Y0074427D03*
X0381941Y0082616D03*
X0421311Y0084427D03*
X0421311Y0074427D03*
X0440996Y0082616D03*
X0480366Y0084427D03*
X0480366Y0074427D03*
X0500051Y0082616D03*
X0500051Y0052616D03*
X0440996Y0052616D03*
X0381941Y0052616D03*
X0322886Y0052616D03*
X0263830Y0052616D03*
X0200838Y0052616D03*
X0181153Y0074427D03*
X0181153Y0084427D03*
X0200838Y0082616D03*
X0141783Y0082616D03*
X0126035Y0084427D03*
X0126035Y0074427D03*
X0141783Y0052616D03*
X0086665Y0052616D03*
X0070917Y0074427D03*
X0086665Y0082616D03*
X0070917Y0084427D03*
X0283791Y0106750D03*
X0293791Y0106750D03*
X0288791Y0114250D03*
X0408791Y0181750D03*
X0418791Y0181750D03*
X0413791Y0189250D03*
X0308791Y0266750D03*
X0303791Y0274250D03*
X0298791Y0266750D03*
D14*
X0098791Y0119750D02*
X0098791Y0113750D01*
X0088791Y0113750D02*
X0088791Y0119750D01*
X0078791Y0119750D02*
X0078791Y0113750D01*
D15*
X0082291Y0175750D02*
X0082293Y0175911D01*
X0082299Y0176071D01*
X0082309Y0176232D01*
X0082323Y0176392D01*
X0082341Y0176552D01*
X0082362Y0176711D01*
X0082388Y0176870D01*
X0082418Y0177028D01*
X0082451Y0177185D01*
X0082489Y0177342D01*
X0082530Y0177497D01*
X0082575Y0177651D01*
X0082624Y0177804D01*
X0082677Y0177956D01*
X0082733Y0178107D01*
X0082794Y0178256D01*
X0082857Y0178404D01*
X0082925Y0178550D01*
X0082996Y0178694D01*
X0083070Y0178836D01*
X0083148Y0178977D01*
X0083230Y0179115D01*
X0083315Y0179252D01*
X0083403Y0179386D01*
X0083495Y0179518D01*
X0083590Y0179648D01*
X0083688Y0179776D01*
X0083789Y0179901D01*
X0083893Y0180023D01*
X0084000Y0180143D01*
X0084110Y0180260D01*
X0084223Y0180375D01*
X0084339Y0180486D01*
X0084458Y0180595D01*
X0084579Y0180700D01*
X0084703Y0180803D01*
X0084829Y0180903D01*
X0084957Y0180999D01*
X0085088Y0181092D01*
X0085222Y0181182D01*
X0085357Y0181269D01*
X0085495Y0181352D01*
X0085634Y0181432D01*
X0085776Y0181508D01*
X0085919Y0181581D01*
X0086064Y0181650D01*
X0086211Y0181716D01*
X0086359Y0181778D01*
X0086509Y0181836D01*
X0086660Y0181891D01*
X0086813Y0181942D01*
X0086967Y0181989D01*
X0087122Y0182032D01*
X0087278Y0182071D01*
X0087434Y0182107D01*
X0087592Y0182138D01*
X0087750Y0182166D01*
X0087909Y0182190D01*
X0088069Y0182210D01*
X0088229Y0182226D01*
X0088389Y0182238D01*
X0088550Y0182246D01*
X0088711Y0182250D01*
X0088871Y0182250D01*
X0089032Y0182246D01*
X0089193Y0182238D01*
X0089353Y0182226D01*
X0089513Y0182210D01*
X0089673Y0182190D01*
X0089832Y0182166D01*
X0089990Y0182138D01*
X0090148Y0182107D01*
X0090304Y0182071D01*
X0090460Y0182032D01*
X0090615Y0181989D01*
X0090769Y0181942D01*
X0090922Y0181891D01*
X0091073Y0181836D01*
X0091223Y0181778D01*
X0091371Y0181716D01*
X0091518Y0181650D01*
X0091663Y0181581D01*
X0091806Y0181508D01*
X0091948Y0181432D01*
X0092087Y0181352D01*
X0092225Y0181269D01*
X0092360Y0181182D01*
X0092494Y0181092D01*
X0092625Y0180999D01*
X0092753Y0180903D01*
X0092879Y0180803D01*
X0093003Y0180700D01*
X0093124Y0180595D01*
X0093243Y0180486D01*
X0093359Y0180375D01*
X0093472Y0180260D01*
X0093582Y0180143D01*
X0093689Y0180023D01*
X0093793Y0179901D01*
X0093894Y0179776D01*
X0093992Y0179648D01*
X0094087Y0179518D01*
X0094179Y0179386D01*
X0094267Y0179252D01*
X0094352Y0179115D01*
X0094434Y0178977D01*
X0094512Y0178836D01*
X0094586Y0178694D01*
X0094657Y0178550D01*
X0094725Y0178404D01*
X0094788Y0178256D01*
X0094849Y0178107D01*
X0094905Y0177956D01*
X0094958Y0177804D01*
X0095007Y0177651D01*
X0095052Y0177497D01*
X0095093Y0177342D01*
X0095131Y0177185D01*
X0095164Y0177028D01*
X0095194Y0176870D01*
X0095220Y0176711D01*
X0095241Y0176552D01*
X0095259Y0176392D01*
X0095273Y0176232D01*
X0095283Y0176071D01*
X0095289Y0175911D01*
X0095291Y0175750D01*
X0095289Y0175589D01*
X0095283Y0175429D01*
X0095273Y0175268D01*
X0095259Y0175108D01*
X0095241Y0174948D01*
X0095220Y0174789D01*
X0095194Y0174630D01*
X0095164Y0174472D01*
X0095131Y0174315D01*
X0095093Y0174158D01*
X0095052Y0174003D01*
X0095007Y0173849D01*
X0094958Y0173696D01*
X0094905Y0173544D01*
X0094849Y0173393D01*
X0094788Y0173244D01*
X0094725Y0173096D01*
X0094657Y0172950D01*
X0094586Y0172806D01*
X0094512Y0172664D01*
X0094434Y0172523D01*
X0094352Y0172385D01*
X0094267Y0172248D01*
X0094179Y0172114D01*
X0094087Y0171982D01*
X0093992Y0171852D01*
X0093894Y0171724D01*
X0093793Y0171599D01*
X0093689Y0171477D01*
X0093582Y0171357D01*
X0093472Y0171240D01*
X0093359Y0171125D01*
X0093243Y0171014D01*
X0093124Y0170905D01*
X0093003Y0170800D01*
X0092879Y0170697D01*
X0092753Y0170597D01*
X0092625Y0170501D01*
X0092494Y0170408D01*
X0092360Y0170318D01*
X0092225Y0170231D01*
X0092087Y0170148D01*
X0091948Y0170068D01*
X0091806Y0169992D01*
X0091663Y0169919D01*
X0091518Y0169850D01*
X0091371Y0169784D01*
X0091223Y0169722D01*
X0091073Y0169664D01*
X0090922Y0169609D01*
X0090769Y0169558D01*
X0090615Y0169511D01*
X0090460Y0169468D01*
X0090304Y0169429D01*
X0090148Y0169393D01*
X0089990Y0169362D01*
X0089832Y0169334D01*
X0089673Y0169310D01*
X0089513Y0169290D01*
X0089353Y0169274D01*
X0089193Y0169262D01*
X0089032Y0169254D01*
X0088871Y0169250D01*
X0088711Y0169250D01*
X0088550Y0169254D01*
X0088389Y0169262D01*
X0088229Y0169274D01*
X0088069Y0169290D01*
X0087909Y0169310D01*
X0087750Y0169334D01*
X0087592Y0169362D01*
X0087434Y0169393D01*
X0087278Y0169429D01*
X0087122Y0169468D01*
X0086967Y0169511D01*
X0086813Y0169558D01*
X0086660Y0169609D01*
X0086509Y0169664D01*
X0086359Y0169722D01*
X0086211Y0169784D01*
X0086064Y0169850D01*
X0085919Y0169919D01*
X0085776Y0169992D01*
X0085634Y0170068D01*
X0085495Y0170148D01*
X0085357Y0170231D01*
X0085222Y0170318D01*
X0085088Y0170408D01*
X0084957Y0170501D01*
X0084829Y0170597D01*
X0084703Y0170697D01*
X0084579Y0170800D01*
X0084458Y0170905D01*
X0084339Y0171014D01*
X0084223Y0171125D01*
X0084110Y0171240D01*
X0084000Y0171357D01*
X0083893Y0171477D01*
X0083789Y0171599D01*
X0083688Y0171724D01*
X0083590Y0171852D01*
X0083495Y0171982D01*
X0083403Y0172114D01*
X0083315Y0172248D01*
X0083230Y0172385D01*
X0083148Y0172523D01*
X0083070Y0172664D01*
X0082996Y0172806D01*
X0082925Y0172950D01*
X0082857Y0173096D01*
X0082794Y0173244D01*
X0082733Y0173393D01*
X0082677Y0173544D01*
X0082624Y0173696D01*
X0082575Y0173849D01*
X0082530Y0174003D01*
X0082489Y0174158D01*
X0082451Y0174315D01*
X0082418Y0174472D01*
X0082388Y0174630D01*
X0082362Y0174789D01*
X0082341Y0174948D01*
X0082323Y0175108D01*
X0082309Y0175268D01*
X0082299Y0175429D01*
X0082293Y0175589D01*
X0082291Y0175750D01*
D16*
X0133791Y0246750D03*
X0143791Y0246750D03*
X0153791Y0246750D03*
X0163791Y0246750D03*
X0173791Y0246750D03*
X0183791Y0246750D03*
X0193791Y0246750D03*
X0203791Y0246750D03*
X0213791Y0246750D03*
X0223791Y0246750D03*
X0233791Y0246750D03*
X0243791Y0246750D03*
X0253791Y0246750D03*
X0263791Y0246750D03*
X0263791Y0276750D03*
X0253791Y0276750D03*
X0243791Y0276750D03*
X0233791Y0276750D03*
X0223791Y0276750D03*
X0213791Y0276750D03*
X0203791Y0276750D03*
X0193791Y0276750D03*
X0183791Y0276750D03*
X0173791Y0276750D03*
X0163791Y0276750D03*
X0153791Y0276750D03*
X0143791Y0276750D03*
X0133791Y0276750D03*
X0088791Y0271750D03*
X0078791Y0271750D03*
X0068791Y0271750D03*
X0068791Y0261750D03*
X0078791Y0261750D03*
X0088791Y0261750D03*
X0408791Y0161750D03*
X0418791Y0161750D03*
X0428791Y0161750D03*
X0438791Y0161750D03*
X0448791Y0161750D03*
X0458791Y0161750D03*
X0468791Y0161750D03*
X0478791Y0161750D03*
X0478791Y0131750D03*
X0468791Y0131750D03*
X0458791Y0131750D03*
X0448791Y0131750D03*
X0438791Y0131750D03*
X0428791Y0131750D03*
X0418791Y0131750D03*
X0408791Y0131750D03*
D17*
X0034291Y0156750D03*
X0023291Y0156750D03*
X0023291Y0176750D03*
X0034291Y0176750D03*
D18*
X0158791Y0226750D03*
X0168791Y0226750D03*
X0198791Y0226750D03*
X0218791Y0226750D03*
X0253791Y0226750D03*
X0263791Y0226750D03*
D19*
X0043791Y0126750D03*
X0033791Y0126750D03*
X0023791Y0126750D03*
X0070484Y0039191D03*
X0070484Y0029191D03*
X0070484Y0019191D03*
X0124421Y0019191D03*
X0124421Y0029191D03*
X0124421Y0039191D03*
X0182295Y0039191D03*
X0182295Y0029191D03*
X0182295Y0019191D03*
X0244106Y0019191D03*
X0244106Y0029191D03*
X0244106Y0039191D03*
X0304854Y0039191D03*
X0304854Y0029191D03*
X0304854Y0019191D03*
X0361665Y0019191D03*
X0361665Y0029191D03*
X0361665Y0039191D03*
X0422413Y0039191D03*
X0422413Y0029191D03*
X0422413Y0019191D03*
X0479224Y0019191D03*
X0479224Y0029191D03*
X0479224Y0039191D03*
D20*
X0136586Y0211750D03*
X0110996Y0211750D03*
D21*
X0110779Y0211317D01*
X0087157Y0187695D01*
X0083712Y0187695D01*
X0076823Y0180805D01*
X0076823Y0129132D01*
X0088141Y0117813D01*
X0088791Y0116750D01*
X0089126Y0116337D01*
X0092571Y0112892D01*
X0092571Y0058758D01*
X0086665Y0052852D01*
X0086665Y0052616D01*
X0086173Y0051376D01*
X0086173Y0034644D01*
X0087157Y0034152D01*
X0109303Y0034152D01*
X0123575Y0019880D01*
X0124421Y0019191D01*
X0124559Y0019388D01*
X0141783Y0036612D01*
X0142767Y0036120D01*
X0159500Y0019388D01*
X0181153Y0019388D01*
X0182295Y0019191D01*
X0182630Y0019388D01*
X0200838Y0037596D01*
X0201823Y0037104D01*
X0225937Y0037104D01*
X0243161Y0019880D01*
X0244106Y0019191D01*
X0244145Y0019388D01*
X0263830Y0039073D01*
X0263830Y0052616D01*
X0244145Y0074014D02*
X0238732Y0068600D01*
X0238732Y0034152D01*
X0243653Y0029230D01*
X0244106Y0029191D01*
X0200838Y0037596D02*
X0200838Y0052616D01*
X0200346Y0053837D01*
X0194933Y0059250D01*
X0194933Y0122242D01*
X0193949Y0123226D01*
X0193456Y0124211D01*
X0193456Y0131593D01*
X0193791Y0131750D01*
X0202807Y0133069D02*
X0202807Y0111907D01*
X0225445Y0089270D01*
X0239716Y0089270D01*
X0239716Y0131100D01*
X0239224Y0131593D01*
X0238791Y0131750D01*
X0238732Y0133069D01*
X0238732Y0143404D01*
X0249559Y0154230D01*
X0248575Y0164073D02*
X0248575Y0191632D01*
X0248791Y0191750D01*
X0254480Y0195569D02*
X0254480Y0070569D01*
X0297787Y0027262D01*
X0297787Y0018404D01*
X0304854Y0019191D02*
X0305169Y0019388D01*
X0322886Y0037104D01*
X0323870Y0036612D01*
X0340602Y0019880D01*
X0360779Y0019880D01*
X0361665Y0019191D01*
X0361764Y0019388D01*
X0381941Y0039565D01*
X0382925Y0039073D01*
X0402610Y0019388D01*
X0421311Y0019388D01*
X0422413Y0019191D01*
X0422787Y0019388D01*
X0440504Y0037104D01*
X0441488Y0036612D01*
X0461665Y0036612D01*
X0478397Y0019880D01*
X0479224Y0019191D01*
X0479382Y0019388D01*
X0500051Y0040057D01*
X0500051Y0052616D01*
X0499559Y0053837D01*
X0494145Y0059250D01*
X0494145Y0206396D01*
X0508417Y0220667D01*
X0508791Y0221750D01*
X0508417Y0222144D01*
X0501527Y0229033D01*
X0501527Y0244781D01*
X0508417Y0251671D01*
X0508791Y0251750D01*
X0486271Y0253640D02*
X0471015Y0268896D01*
X0434598Y0268896D01*
X0433614Y0269388D01*
X0433614Y0276278D01*
X0433791Y0276750D01*
X0423791Y0276750D02*
X0423771Y0276278D01*
X0423771Y0264467D01*
X0418850Y0259545D01*
X0419342Y0258561D01*
X0443456Y0234447D01*
X0443456Y0211809D01*
X0478397Y0211809D01*
X0478791Y0211750D01*
X0478791Y0221750D02*
X0478889Y0222144D01*
X0486271Y0229526D01*
X0486271Y0253640D01*
X0478791Y0241750D02*
X0478397Y0241337D01*
X0458712Y0221652D01*
X0438535Y0224112D02*
X0418850Y0243797D01*
X0409008Y0238876D02*
X0394244Y0224112D01*
X0394244Y0217222D01*
X0393791Y0216750D01*
X0388830Y0208856D02*
X0399165Y0198522D01*
X0399165Y0187695D01*
X0363732Y0152262D01*
X0363732Y0108463D01*
X0353889Y0106494D02*
X0353791Y0106750D01*
X0353889Y0106494D02*
X0376035Y0084348D01*
X0376035Y0059250D01*
X0381449Y0053837D01*
X0381941Y0052616D01*
X0381941Y0039565D01*
X0361665Y0029191D02*
X0361271Y0029230D01*
X0355858Y0034644D01*
X0355858Y0079427D01*
X0356596Y0080165D01*
X0333712Y0103049D01*
X0333712Y0138482D01*
X0327807Y0144388D01*
X0313043Y0145864D02*
X0313043Y0149309D01*
X0312059Y0149801D01*
X0296311Y0165549D01*
X0293850Y0179329D02*
X0293850Y0186711D01*
X0298771Y0191632D01*
X0298791Y0191750D01*
X0298279Y0192616D01*
X0298279Y0214270D01*
X0296311Y0216238D01*
X0278594Y0206396D02*
X0274165Y0210825D01*
X0274165Y0251671D01*
X0262846Y0262990D01*
X0244145Y0262990D01*
X0244145Y0276278D01*
X0243791Y0276750D01*
X0253791Y0276750D02*
X0253988Y0276278D01*
X0262354Y0267911D01*
X0283515Y0267911D01*
X0283515Y0155707D01*
X0259401Y0131593D01*
X0259401Y0119289D01*
X0269244Y0131593D02*
X0276134Y0124703D01*
X0276134Y0098620D01*
X0283515Y0106986D02*
X0283791Y0106750D01*
X0283515Y0106986D02*
X0283023Y0107478D01*
X0283023Y0126179D01*
X0288437Y0131593D01*
X0288791Y0131750D01*
X0288929Y0132577D01*
X0288929Y0191632D01*
X0288791Y0191750D01*
X0308791Y0191750D02*
X0309106Y0191632D01*
X0313043Y0187695D01*
X0313043Y0179329D01*
X0333712Y0169486D02*
X0333712Y0199998D01*
X0327807Y0205904D01*
X0322886Y0204427D02*
X0322886Y0119289D01*
X0328791Y0117813D02*
X0328791Y0131750D01*
X0342571Y0125687D02*
X0342571Y0107970D01*
X0343791Y0106750D01*
X0328791Y0117813D02*
X0306645Y0095667D01*
X0317964Y0114368D02*
X0317964Y0201967D01*
X0288437Y0231494D01*
X0292866Y0234447D02*
X0322886Y0204427D01*
X0342571Y0207872D02*
X0358319Y0192124D01*
X0358791Y0191750D01*
X0361764Y0199506D02*
X0378496Y0199506D01*
X0378988Y0198522D01*
X0378988Y0196061D01*
X0394244Y0196061D01*
X0408023Y0189171D02*
X0413437Y0189171D01*
X0413791Y0189250D01*
X0408023Y0189171D02*
X0398181Y0179329D01*
X0398181Y0090254D01*
X0403102Y0092715D02*
X0417620Y0078197D01*
X0416882Y0077459D01*
X0416882Y0034644D01*
X0422295Y0029230D01*
X0422413Y0029191D01*
X0440504Y0037104D02*
X0440504Y0051376D01*
X0440996Y0052616D01*
X0440996Y0052852D01*
X0446901Y0058758D01*
X0446901Y0100096D01*
X0478397Y0131593D01*
X0478791Y0131750D01*
X0476921Y0131593D01*
X0466586Y0141927D01*
X0469047Y0160628D02*
X0486271Y0143404D01*
X0486271Y0046455D01*
X0479382Y0039565D01*
X0479224Y0039191D01*
X0473476Y0034644D02*
X0478889Y0029230D01*
X0479224Y0029191D01*
X0473476Y0034644D02*
X0473476Y0067124D01*
X0480366Y0074014D01*
X0480366Y0074427D01*
X0421311Y0074506D02*
X0421311Y0074427D01*
X0421311Y0074506D02*
X0417620Y0078197D01*
X0403102Y0092715D02*
X0403102Y0139467D01*
X0393260Y0144388D02*
X0393260Y0130608D01*
X0381941Y0119289D01*
X0348791Y0131750D02*
X0348968Y0132577D01*
X0348968Y0191632D01*
X0348791Y0191750D01*
X0361764Y0199506D02*
X0348476Y0212793D01*
X0348476Y0271848D01*
X0344047Y0276278D01*
X0343791Y0276750D01*
X0353791Y0276750D02*
X0353889Y0276278D01*
X0353889Y0217222D01*
X0353791Y0216750D01*
X0354874Y0216238D01*
X0366685Y0204427D01*
X0378496Y0199506D02*
X0378496Y0239368D01*
X0375543Y0242321D01*
X0375543Y0247242D01*
X0403594Y0275293D01*
X0403594Y0276278D01*
X0403791Y0276750D01*
X0413437Y0276278D02*
X0413791Y0276750D01*
X0413437Y0276278D02*
X0413437Y0260037D01*
X0413929Y0259545D01*
X0413929Y0254624D01*
X0412945Y0254624D01*
X0413929Y0254624D02*
X0413929Y0217222D01*
X0413791Y0216750D01*
X0418850Y0231002D02*
X0428693Y0221159D01*
X0428693Y0181789D01*
X0448378Y0162104D01*
X0448791Y0161750D01*
X0453299Y0156199D02*
X0434106Y0137006D01*
X0418850Y0137006D01*
X0418850Y0132085D01*
X0418791Y0131750D01*
X0428791Y0131750D02*
X0429185Y0131593D01*
X0429185Y0126179D01*
X0442964Y0126179D01*
X0438791Y0161750D02*
X0438535Y0162104D01*
X0418850Y0181789D01*
X0418791Y0181750D01*
X0421311Y0171947D02*
X0418850Y0169486D01*
X0418850Y0162104D01*
X0418791Y0161750D01*
X0438535Y0182281D02*
X0438535Y0224112D01*
X0388830Y0233463D02*
X0388830Y0208856D01*
X0373575Y0226573D02*
X0364224Y0217222D01*
X0363791Y0216750D01*
X0373575Y0226573D02*
X0373575Y0229033D01*
X0383417Y0238876D02*
X0388830Y0233463D01*
X0380464Y0260037D02*
X0364224Y0276278D01*
X0363791Y0276750D01*
X0373791Y0276750D02*
X0374067Y0276278D01*
X0385386Y0264959D01*
X0385386Y0264467D01*
X0428693Y0264467D02*
X0433614Y0269388D01*
X0343555Y0233955D02*
X0315012Y0262498D01*
X0315012Y0271356D01*
X0304185Y0282183D01*
X0223476Y0282183D01*
X0223476Y0276770D01*
X0223791Y0276750D01*
X0223476Y0282183D02*
X0130464Y0282183D01*
X0122098Y0273817D01*
X0122098Y0261514D01*
X0111271Y0261514D01*
X0108811Y0263974D01*
X0108811Y0277262D01*
X0084204Y0277262D01*
X0078791Y0271848D01*
X0078791Y0271750D01*
X0068791Y0271750D02*
X0068456Y0271356D01*
X0063535Y0266435D01*
X0063535Y0250687D01*
X0064027Y0250195D01*
X0073870Y0256593D02*
X0073870Y0200982D01*
X0067964Y0195077D01*
X0071901Y0191632D02*
X0071901Y0113384D01*
X0076823Y0114368D02*
X0076823Y0110923D01*
X0074362Y0108463D01*
X0063043Y0108463D01*
X0063043Y0211317D01*
X0062728Y0211750D01*
X0050740Y0193600D02*
X0039913Y0204427D01*
X0039913Y0210825D01*
X0039106Y0211750D01*
X0039421Y0211809D01*
X0068949Y0241337D01*
X0068949Y0261514D01*
X0068791Y0261750D01*
X0073870Y0256593D02*
X0078791Y0261514D01*
X0078791Y0261750D01*
X0088634Y0261514D02*
X0088791Y0261750D01*
X0088634Y0261514D02*
X0078791Y0251671D01*
X0078791Y0245274D01*
X0084697Y0250195D02*
X0088141Y0253640D01*
X0105858Y0253640D01*
X0112748Y0246750D01*
X0123575Y0251671D02*
X0123575Y0184250D01*
X0108811Y0194585D02*
X0108811Y0119289D01*
X0103889Y0124211D02*
X0103889Y0164565D01*
X0095031Y0165057D02*
X0103889Y0173915D01*
X0103889Y0186711D01*
X0071901Y0191632D02*
X0112748Y0232478D01*
X0128496Y0251179D02*
X0153594Y0276278D01*
X0153791Y0276750D01*
X0163437Y0276278D02*
X0163791Y0276750D01*
X0163437Y0276278D02*
X0153594Y0266435D01*
X0143752Y0276278D02*
X0138830Y0271356D01*
X0127019Y0271356D01*
X0117177Y0266435D02*
X0117177Y0282183D01*
X0071409Y0282183D01*
X0028102Y0238876D01*
X0028102Y0200982D01*
X0040405Y0188679D01*
X0040405Y0148817D01*
X0048279Y0140943D01*
X0058122Y0150785D02*
X0058122Y0087301D01*
X0070917Y0074506D01*
X0070917Y0074427D01*
X0071409Y0073522D01*
X0075838Y0069093D01*
X0075838Y0034152D01*
X0070917Y0029230D01*
X0070484Y0029191D01*
X0070917Y0019388D02*
X0086173Y0034644D01*
X0070484Y0039191D02*
X0070425Y0039565D01*
X0070425Y0050884D01*
X0052708Y0068600D01*
X0052708Y0107970D01*
X0034008Y0126671D01*
X0033791Y0126750D01*
X0043358Y0127163D02*
X0043791Y0126750D01*
X0043358Y0127163D02*
X0016783Y0153738D01*
X0016783Y0169978D01*
X0023181Y0176376D01*
X0023291Y0176750D01*
X0034291Y0176750D02*
X0034500Y0176376D01*
X0034500Y0157183D01*
X0034291Y0156750D01*
X0053201Y0180313D02*
X0053201Y0121750D01*
X0076823Y0114368D02*
X0078791Y0116337D01*
X0078791Y0116750D01*
X0118653Y0127656D02*
X0122098Y0124211D01*
X0121606Y0123226D01*
X0120130Y0121750D01*
X0120130Y0043502D01*
X0124067Y0039565D01*
X0124421Y0039191D01*
X0129972Y0035136D02*
X0125051Y0030215D01*
X0124421Y0029191D01*
X0124067Y0029230D01*
X0113732Y0039565D01*
X0113732Y0161120D01*
X0149165Y0196553D01*
X0170327Y0198522D02*
X0170327Y0201474D01*
X0170327Y0198522D02*
X0133909Y0162104D01*
X0133791Y0161750D01*
X0123791Y0161750D02*
X0123575Y0161612D01*
X0118653Y0156691D01*
X0118653Y0127656D01*
X0123791Y0131750D02*
X0124067Y0132085D01*
X0144736Y0152754D01*
X0143791Y0161750D02*
X0144244Y0162104D01*
X0157531Y0175392D01*
X0157531Y0176376D01*
X0169342Y0188187D01*
X0175248Y0186711D02*
X0175248Y0235431D01*
X0163929Y0246750D01*
X0163791Y0246750D01*
X0153791Y0246750D02*
X0153594Y0246750D01*
X0153102Y0246258D01*
X0153102Y0224604D01*
X0166389Y0211317D01*
X0148181Y0221652D02*
X0148181Y0242813D01*
X0144244Y0246750D01*
X0143791Y0246750D01*
X0128496Y0251179D02*
X0128496Y0206888D01*
X0166882Y0170470D02*
X0180169Y0183758D01*
X0180169Y0231494D01*
X0181153Y0232478D01*
X0190996Y0243305D02*
X0190996Y0181297D01*
X0186075Y0178837D02*
X0214126Y0150785D01*
X0214126Y0115352D01*
X0209204Y0112892D02*
X0227905Y0094191D01*
X0223791Y0106750D02*
X0223476Y0106986D01*
X0222984Y0107478D01*
X0222984Y0126179D01*
X0228397Y0131593D01*
X0228791Y0131750D01*
X0228889Y0132577D01*
X0228889Y0191632D01*
X0228791Y0191750D01*
X0238732Y0191632D02*
X0238791Y0191750D01*
X0238732Y0191632D02*
X0238732Y0181297D01*
X0233811Y0176376D01*
X0248575Y0164073D02*
X0233811Y0149309D01*
X0223968Y0144388D02*
X0223968Y0158167D01*
X0195917Y0186219D01*
X0186075Y0178837D02*
X0186075Y0244781D01*
X0184106Y0246750D01*
X0183791Y0246750D01*
X0190996Y0243305D02*
X0193456Y0245766D01*
X0193791Y0246750D01*
X0193949Y0246750D01*
X0213634Y0266435D01*
X0213634Y0276278D01*
X0213791Y0276750D01*
X0195425Y0274801D02*
X0195425Y0255608D01*
X0182138Y0260530D02*
X0174264Y0268404D01*
X0174264Y0276278D01*
X0173791Y0276750D01*
X0183614Y0276278D02*
X0183791Y0276750D01*
X0183614Y0276278D02*
X0183614Y0266435D01*
X0193949Y0276278D02*
X0195425Y0274801D01*
X0193949Y0276278D02*
X0193791Y0276750D01*
X0213634Y0246750D02*
X0213791Y0246750D01*
X0213634Y0246750D02*
X0198870Y0231986D01*
X0198870Y0227065D01*
X0198791Y0226750D01*
X0218791Y0226750D02*
X0219047Y0227065D01*
X0219047Y0242321D01*
X0223476Y0246750D01*
X0223791Y0246750D01*
X0224460Y0227557D02*
X0243653Y0246750D01*
X0243791Y0246750D01*
X0260386Y0258069D02*
X0269244Y0249211D01*
X0269244Y0224604D01*
X0263830Y0219191D01*
X0263830Y0176376D01*
X0259401Y0171947D01*
X0254480Y0195569D02*
X0233811Y0216238D01*
X0224460Y0224604D02*
X0201330Y0201474D01*
X0195917Y0201474D01*
X0213634Y0206396D02*
X0218555Y0201474D01*
X0218555Y0192124D01*
X0218791Y0191750D01*
X0165405Y0176376D02*
X0161960Y0172931D01*
X0161960Y0169978D01*
X0154086Y0162104D01*
X0153791Y0161750D01*
X0163791Y0161750D02*
X0176232Y0149309D01*
X0174264Y0161612D02*
X0173791Y0161750D01*
X0174264Y0161612D02*
X0202807Y0133069D01*
X0207728Y0133069D02*
X0207728Y0147833D01*
X0193949Y0161612D01*
X0193791Y0161750D01*
X0184106Y0161612D02*
X0183791Y0161750D01*
X0184106Y0161612D02*
X0202807Y0142911D01*
X0207728Y0133069D02*
X0208712Y0132085D01*
X0208791Y0131750D01*
X0209204Y0130608D01*
X0209204Y0112892D01*
X0193456Y0124211D02*
X0171311Y0124211D01*
X0163929Y0131593D01*
X0163791Y0131750D01*
X0153791Y0131750D02*
X0153594Y0132085D01*
X0144244Y0132085D01*
X0143791Y0131750D01*
X0142767Y0131100D01*
X0142767Y0124211D01*
X0122098Y0124211D01*
X0095031Y0145864D02*
X0095031Y0165057D01*
X0050917Y0193246D02*
X0050740Y0193600D01*
X0033515Y0225589D02*
X0046803Y0238876D01*
X0046803Y0244781D01*
X0048771Y0246750D01*
X0048791Y0246750D01*
X0143752Y0276278D02*
X0143791Y0276750D01*
X0224460Y0227557D02*
X0224460Y0224604D01*
X0292866Y0234447D02*
X0292866Y0276278D01*
X0263830Y0276278D01*
X0263791Y0276750D01*
X0299756Y0257577D02*
X0299756Y0235431D01*
X0299756Y0257577D02*
X0308614Y0266435D01*
X0308791Y0266750D01*
X0319933Y0266435D02*
X0336665Y0249703D01*
X0438535Y0182281D02*
X0458712Y0162104D01*
X0458791Y0161750D01*
X0468791Y0161750D02*
X0469047Y0160628D01*
X0468791Y0161750D02*
X0469047Y0162104D01*
X0469047Y0171947D01*
X0478397Y0181297D01*
X0478791Y0181750D01*
X0508791Y0201750D02*
X0508909Y0201967D01*
X0508909Y0211317D01*
X0508791Y0211750D01*
X0348791Y0131750D02*
X0348476Y0131593D01*
X0342571Y0125687D01*
X0313043Y0145864D02*
X0299264Y0132085D01*
X0298791Y0131750D01*
X0269244Y0131593D02*
X0268791Y0131750D01*
X0356596Y0080165D02*
X0362256Y0074506D01*
X0362256Y0074427D01*
X0322886Y0052616D02*
X0322886Y0037104D01*
X0304854Y0029191D02*
X0304677Y0029230D01*
X0293358Y0040549D01*
X0293358Y0062695D01*
X0292866Y0063679D01*
X0303201Y0074014D01*
X0303201Y0074427D01*
X0244145Y0074427D02*
X0244145Y0074014D01*
X0181153Y0074014D02*
X0181153Y0074427D01*
X0181153Y0074014D02*
X0176724Y0069585D01*
X0176724Y0034644D01*
X0182138Y0029230D01*
X0182295Y0029191D01*
X0141783Y0036612D02*
X0141783Y0052616D01*
X0129972Y0070077D02*
X0129972Y0035136D01*
X0070917Y0019388D02*
X0070484Y0019191D01*
X0126035Y0074014D02*
X0129972Y0070077D01*
X0126035Y0074014D02*
X0126035Y0074427D01*
D22*
X0071901Y0113384D03*
X0053201Y0121750D03*
X0048279Y0140943D03*
X0058122Y0150785D03*
X0095031Y0145864D03*
X0103889Y0164565D03*
X0123575Y0184250D03*
X0108811Y0194585D03*
X0103889Y0186711D03*
X0128496Y0206888D03*
X0149165Y0196553D03*
X0170327Y0201474D03*
X0166389Y0211317D03*
X0148181Y0221652D03*
X0181153Y0232478D03*
X0195425Y0255608D03*
X0182138Y0260530D03*
X0183614Y0266435D03*
X0153594Y0266435D03*
X0127019Y0271356D03*
X0117177Y0266435D03*
X0123575Y0251671D03*
X0112748Y0246750D03*
X0112748Y0232478D03*
X0084697Y0250195D03*
X0078791Y0245274D03*
X0064027Y0250195D03*
X0033515Y0225589D03*
X0067964Y0195077D03*
X0053201Y0180313D03*
X0144736Y0152754D03*
X0166882Y0170470D03*
X0165405Y0176376D03*
X0169342Y0188187D03*
X0175248Y0186711D03*
X0190996Y0181297D03*
X0195917Y0186219D03*
X0195917Y0201474D03*
X0213634Y0206396D03*
X0233811Y0216238D03*
X0278594Y0206396D03*
X0296311Y0216238D03*
X0288437Y0231494D03*
X0299756Y0235431D03*
X0336665Y0249703D03*
X0319933Y0266435D03*
X0343555Y0233955D03*
X0373575Y0229033D03*
X0383417Y0238876D03*
X0409008Y0238876D03*
X0418850Y0243797D03*
X0412945Y0254624D03*
X0418850Y0259545D03*
X0428693Y0264467D03*
X0385386Y0264467D03*
X0380464Y0260037D03*
X0418850Y0231002D03*
X0458712Y0221652D03*
X0394244Y0196061D03*
X0366685Y0204427D03*
X0342571Y0207872D03*
X0327807Y0205904D03*
X0313043Y0179329D03*
X0293850Y0179329D03*
X0296311Y0165549D03*
X0313043Y0149309D03*
X0327807Y0144388D03*
X0322886Y0119289D03*
X0317964Y0114368D03*
X0306645Y0095667D03*
X0276134Y0098620D03*
X0259401Y0119289D03*
X0223968Y0144388D03*
X0233811Y0149309D03*
X0249559Y0154230D03*
X0259401Y0171947D03*
X0233811Y0176376D03*
X0202807Y0142911D03*
X0176232Y0149309D03*
X0214126Y0115352D03*
X0227905Y0094191D03*
X0292866Y0063679D03*
X0297787Y0018404D03*
X0398181Y0090254D03*
X0363732Y0108463D03*
X0381941Y0119289D03*
X0403102Y0139467D03*
X0393260Y0144388D03*
X0442964Y0126179D03*
X0466586Y0141927D03*
X0453299Y0156199D03*
X0421311Y0171947D03*
X0333712Y0169486D03*
X0260386Y0258069D03*
X0103889Y0124211D03*
X0108811Y0119289D03*
M02*
